<?xml version="1.0" encoding="UTF-8" standalone="no"?>
<!-- Created with Inkscape (http://www.inkscape.org/) -->

<svg
   xmlns:dc="http://purl.org/dc/elements/1.1/"
   xmlns:cc="http://creativecommons.org/ns#"
   xmlns:rdf="http://www.w3.org/1999/02/22-rdf-syntax-ns#"
   xmlns:svg="http://www.w3.org/2000/svg"
   xmlns="http://www.w3.org/2000/svg"
   version="1.1"
   width="726.19641"
   height="876.17511"
   id="svg2">
  <defs
     id="defs4" />
  <metadata
     id="metadata7">
    <rdf:RDF>
      <cc:Work
         rdf:about="">
        <dc:format>image/svg+xml</dc:format>
        <dc:type
           rdf:resource="http://purl.org/dc/dcmitype/StillImage" />
        <dc:title></dc:title>
      </cc:Work>
    </rdf:RDF>
  </metadata>
  <g
     transform="translate(-10.913589,-165.68938)"
     id="layer1">
    <path
       d="m 336.87911,1041.5887 c -3.11549,-0.1493 -6.24643,-1.4314 -9.1135,-2.1208 -1.5822,-0.3755 -4.71649,-1.5513 -6.96512,-2.6128 -3.90291,-1.8425 -4.15851,-2.049 -5.63321,-4.5493 -0.92016,-1.8985 -1.32804,-3.1198 -2.29133,-5.7976 -0.77358,-1.4454 -3.79421,-11.3893 -4.63953,-14.4282 -0.78635,-3.5833 -1.93586,-7.1056 -2.76433,-10.5604 -0.94061,-3.95846 -2.22861,-8.06507 -3.08368,-11.85346 -1.12535,-4.97986 -2.38458,-10.32889 -3.42346,-14.87082 -0.73169,-3.20039 -1.53441,-6.49789 -1.7838,-7.32762 -0.2494,-0.82972 -0.72703,-2.9634 -1.06139,-4.74143 -0.3344,-1.77803 -0.73147,-3.52366 -0.88241,-3.87931 -0.151,-0.35557 -0.52608,-2.48926 -0.83359,-4.74135 -0.3075,-2.25218 -0.92322,-6.04659 -1.486,-8.40524 -0.95792,-4.01472 -2.9427,-10.8133 -3.58923,-14.69247 -5.13109,0.92394 -14.50573,1.40762 -19.89342,1.77783 -10.14748,0.6932 -21.45491,0.51941 -29.18907,0.57873 -11.66917,-0.42229 -18.42922,-1.27902 -28.41914,-2.61338 -5.27405,-0.60472 -10.77314,-1.4014 -18.65788,-3.11387 -4.17597,5.85917 -9.09877,11.31729 -12.74298,17.53522 -6.79546,11.15784 -15.28007,22.48347 -20.58235,35.51226 -0.76351,1.93527 -2.09177,5.03874 -2.9517,6.8966 -1.57651,3.4061 -2.3634,5.31237 -3.38971,8.65156 -0.81888,2.57701 -1.29045,5.93295 -1.9557,7.95435 -1.11743,2.3482 -2.10142,3.9221 -3.48285,4.6834 -1.67217,0.6652 -6.16138,2.5834 -11.60343,2.9836 -4.49742,0.3307 -17.58683,0.2315 -22.41391,-0.1699 -8.80191,-0.7319 -16.650713,-2.1137 -21.291206,-3.4724 -4.083438,-1.3755 -13.537084,-4.6911 -17.603999,-6.7144 -4.179452,-1.97224 -8.459532,-4.48604 -12.595938,-7.41441 -1.160848,-0.90684 -1.000298,-0.72406 -2.902088,-2.08111 -2.97741,-2.33884 -8.763724,-7.44089 -8.945905,-7.44089 -0.514425,0 -1.359422,-1.32951 -3.236021,-3.07508 -0.465095,-0.86185 -5.383266,-6.84662 -9.534718,-13.51857 -2.00501,-3.22233 -5.923501,-11.98065 -6.399455,-13.98678 -0.648719,-1.50495 -0.850652,-2.6154 -1.437201,-4.41999 -1.506144,-5.36929 -2.702173,-11.3445 -3.905362,-16.20273 -0.700934,-5.53088 -0.525732,-4.52707 -0.579011,-10.50253 -0.0494,-5.5437 0.0282,-6.19228 0.954198,-7.97414 1.304266,-2.5097 2.434315,-4.16671 4.115476,-6.03457 0.746832,-0.82972 2.846598,-3.44821 4.666139,-5.81897 6.267753,-7.98598 14.138042,-14.87797 21.367226,-21.62298 4.052374,-3.91453 9.017542,-6.86249 12.936391,-10.90448 4.003246,-3.43574 9.150798,-6.12236 13.102156,-8.97576 3.805225,-2.7404 7.09513,-4.91181 11.012814,-7.53332 -2.362833,-3.15944 -4.999589,-5.45068 -6.864611,-8.80871 -3.546881,-4.72186 -6.259347,-9.87683 -8.4825,-13.60907 -2.108818,-3.00997 -3.281237,-6.62454 -4.410836,-9.87905 -1.948079,-5.6002 -3.823557,-12.15803 -4.581651,-20.82229 0.05203,-4.7808 -0.518323,-9.86191 -0.155532,-14.43973 0.563213,-6.74007 0.407203,-30.02248 -0.239738,-35.77604 -1.74318,-15.50301 -5.368553,-28.42054 -11.183379,-39.84744 -1.708604,-3.61136 -3.719486,-7.57554 -5.636845,-10.58384 -1.288635,-2.01511 -2.863162,-4.63365 -3.498945,-5.81901 -2.490797,-4.64381 -6.626264,-9.68706 -10.986052,-13.39764 -2.862896,-2.81888 -5.852016,-5.80224 -8.375624,-8.15418 -4.824445,-4.48989 -7.496098,-7.16059 -9.776589,-9.7732 -6.052227,-6.93353 -7.021001,-8.56022 -7.977907,-13.39585 -0.89307,-6.95975 -1.177966,-13.76541 0.793277,-20.42673 1.159136,-3.96675 6.350951,-8.88233 10.128562,-9.5897 8.666381,-1.62277 12.836275,-1.59014 21.48048,0.16818 5.335648,1.08531 8.597022,2.28162 14.224997,5.21778 9.202195,4.02647 17.59174,9.4966 21.601556,12.63548 2.731257,1.99722 11.696021,9.31106 12.881366,9.98477 3.19333,1.97853 6.116548,4.74532 8.836255,6.79413 3.76415,2.82696 5.58045,4.35468 13.14611,11.05751 6.48849,5.74848 6.76736,6.01925 8.40372,8.15913 3.57348,4.16912 9.29051,10.39485 10.77792,12.59326 0.34287,0.46927 0.77075,1.22699 1.71277,2.34414 0.94202,1.11721 2.14148,2.77843 2.66546,3.69158 0.52398,0.91315 1.74138,2.54751 2.70536,3.63182 0.96397,1.08437 3.27567,3.84838 5.1371,6.14228 1.86145,2.29394 3.54251,4.17075 3.73569,4.17075 0.19318,0 1.46802,1.60022 2.83298,3.55605 2.93103,4.19985 12.53311,13.93632 19.23519,19.50441 1.59748,1.32716 4.13636,2.90132 7.45399,4.62153 2.53595,1.39955 5.31985,2.87791 7.25377,3.79129 2.0203,-2.46225 5.79338,-6.79285 7.63325,-8.4723 5.08219,-4.63906 5.05314,-4.61335 7.8088,-7.3328 2.4794,-2.44682 3.13297,-2.86397 4.77774,-3.04937 1.25475,-0.14142 2.33458,0.0125 3.1622,0.45108 1.96283,1.03997 5.73647,4.54959 6.9874,6.49862 3.68334,4.82207 5.95673,9.40708 8.71896,14.84551 l 3.22785,-1.10683 c 3.02877,-1.03858 3.22784,-2.36803 3.22784,-2.36803 0,0 1.7283,-6.68577 4.22172,-11.97355 1.17379,-2.48923 2.75188,-5.98063 3.50687,-7.75865 1.42759,-2.43167 2.20857,-5.51301 3.54094,-7.72702 1.37675,-2.21472 2.86482,-3.04037 5.4909,-3.04649 2.42094,-0.005 7.50536,2.83 10.82705,4.90448 2.76373,1.30952 8.38544,4.57592 8.38544,4.57592 0,0 1.92946,-1.53795 3.85155,-3.4177 1.9221,-1.87971 4.02813,-3.83341 4.68007,-4.34162 1.13851,-0.8875 1.18568,-1.08026 1.19388,-4.8798 0.005,-2.1757 0.20516,-5.31357 0.44547,-6.97306 0.24032,-1.65948 0.91616,-6.78235 1.50186,-11.3841 0.94359,-7.41336 1.19081,-8.53189 2.16945,-9.81497 2.32224,-3.04458 3.26061,-3.18881 11.17649,-1.71789 2.69957,0.5281 8.15171,0.93409 8.15171,0.93409 1.50322,-2.95212 1.93885,-3.39869 3.6205,-6.11923 1.05043,-1.69173 3.26647,-5.96571 3.09855,-6.27358 -1.73723,-3.18508 -3.58808,-8.26247 -2.50786,-5.48225 -0.61434,-1.54772 -2.32006,-6.74754 -3.44048,-10.12099 -2.22728,-6.59409 -2.09417,-7.77986 -1.41397,-11.72643 0.294,-0.67432 2.47129,-2.8747 4.83841,-4.8898 5.19633,-4.42356 12.42809,-11.50778 12.46301,-12.20878 0.0138,-0.27875 0.27008,-2.93138 0.56931,-5.89477 0.29927,-2.96337 0.40413,-6.02347 0.2331,-6.80019 -0.28254,-1.2832 -2.71131,-4.77771 -6.05848,-8.71712 -0.705,-0.82975 -2.37579,-2.96337 -3.71286,-4.7414 -1.33708,-1.77803 -2.58437,-3.42675 -2.77169,-3.66382 -0.18738,-0.23707 -0.81591,-1.02595 -1.39677,-1.75311 -1.50864,-1.88859 -1.74967,-3.27807 -0.86541,-4.9893 0.41135,-0.79598 0.98648,-1.64125 1.27816,-1.87832 0.53457,-0.43453 6.70059,-8.67699 8.49793,-11.35963 2.2846,-3.05336 4.34026,-5.3573 6.86641,-8.28805 l -4.45747,-4.52972 c -2.45165,-2.4914 -6.13801,-5.88168 -8.19198,-7.53397 -5.05223,-4.06432 -6.39491,-5.65007 -6.39491,-7.55262 0,-2.47673 0.83436,-5.05744 2.10591,-6.51387 2.73951,-3.13769 7.26496,-8.1328 8.67281,-9.57294 0.83125,-0.8503 2.38299,-2.78725 3.44829,-4.30429 1.49668,-2.19284 3.29605,-4.05705 5.2002,-5.87653 l 0.33254,-4.73437 c 0.28466,-4.05218 -0.34038,-5.22344 -0.34038,-5.22344 0,0 -3.69473,-4.92114 -6.24707,-8.07614 -2.04676,-2.5154 -6.10174,-7.10793 -6.10174,-7.10793 0,0 -15.20441,7.16676 -20.17929,10.01011 -1.81291,1.04747 -3.22869,1.67661 -12.10691,5.38009 -5.65942,2.36077 -7.53105,3.0734 -12.06902,4.5954 -1.6595,0.5566 -4.85994,1.72984 -7.11211,2.60721 -3.69878,1.44095 -4.51781,1.6004 -8.46768,1.64816 -5.23997,0.0634 -5.79552,-0.26911 -6.5833,-3.93994 -1.27365,-5.93495 -1.63447,-6.52218 -4.56119,-7.42365 -6.44448,-1.98489 -11.40133,-5.86106 -12.55056,-9.81423 -1.32948,-4.57325 -0.1933,-10.07963 4.08601,-19.80234 3.23249,-7.34426 9.94608,-20.46334 12.02828,-23.50447 0.69368,-1.01321 2.45422,-3.68481 3.91231,-5.93697 4.02943,-6.22383 6.88161,-10.27175 9.41506,-13.36214 1.26325,-1.54095 4.51325,-5.78981 7.22223,-9.44194 6.258,-8.43673 12.32546,-15.45517 21.61958,-25.0082 11.55901,-11.88095 15.02058,-15.58623 15.33631,-16.41593 1.29007,-1.90941 2.09143,-4.0779 2.72671,-5.85059 1.55272,-4.35813 1.79698,-4.75115 4.91058,-7.9013 1.80216,-1.82328 4.92532,-4.42093 6.94042,-5.77256 2.0151,-1.35165 4.43968,-3.03542 5.38796,-3.74171 0.94828,-0.70631 2.0151,-1.3977 2.3707,-1.53642 0.3556,-0.13872 1.47656,-0.62725 2.491,-1.08558 l 1.84445,-0.83334 c -2.64313,-4.12121 -1.51476,-8.75043 -1.2675,-13.36116 0.60156,-3.88201 0.8186,-8.6797 -1.93358,-10.92769 -5.51586,-4.35114 -6.83854,-8.23266 -4.94216,-14.50347 1.45597,-2.78454 3.33303,-4.45335 5.53839,-6.71077 -3.19617,-2.63938 -3.96933,-3.67529 -3.76399,-7.72895 0.21333,-4.21019 1.14901,-7.54601 3.50123,-12.48229 2.77959,-5.83312 4.33093,-10.53213 5.41334,-16.39717 1.62233,-6.16312 2.0731,-12.92161 1.91191,-17.20721 -0.14719,-3.81197 -0.39164,-7.05641 -0.54328,-7.20987 -5.09777,1.24718 -8.24304,2.21372 -14.20523,1.84917 -2.77221,7.31309 -6.66228,11.54462 -11.50158,14.02884 -6.2224,3.14628 -7.46762,4.20559 -9.07949,7.72399 -2.3617,4.4618 -2.03203,10.16259 -3.85428,14.54971 -0.35414,0.67903 -0.64388,1.45697 -0.64388,1.72873 0,1.05346 -3.9312,6.28157 -6.14629,8.17399 -3.8465,3.28616 -10.41545,4.46636 -13.24293,2.37926 -1.44623,-1.06745 -2.59365,-3.24119 -2.59365,-4.91346 0,-0.54448 0.80708,-2.5425 1.79351,-4.44003 1.55201,-2.98551 1.82008,-3.90922 1.9909,-6.86006 0.23725,-4.09815 -0.0781,-4.81108 -3.35338,-7.57978 -4.25912,-3.60048 -6.93651,-6.49878 -7.80847,-8.45277 -0.74848,-1.67729 -0.79527,-2.1933 -0.37142,-4.09485 0.26674,-1.19665 0.86647,-2.95159 1.33274,-3.89987 0.67861,-1.38012 5.9063,-8.23074 10.19662,-13.36214 2.20651,-2.63907 5.55887,-8.21338 10.34184,-17.19642 1.12284,-2.10884 2.28114,-4.24248 2.57397,-4.74139 0.49863,-2.15425 1.43362,-4.3424 1.9695,-6.19609 0.69265,-2.41454 0.84171,-4.41793 0.88924,-11.9525 l 0.0571,-9.05178 1.44397,-2.07997 c 1.82422,-2.62771 3.02415,-3.34783 7.23727,-4.34338 6.51568,-1.53963 9.71466,-2.86517 19.76717,-8.19071 1.89656,-1.00475 5.194,-2.72805 7.32763,-3.82956 2.13363,-1.10149 4.0733,-2.15973 4.31036,-2.35162 1.47376,-1.1929 3.22993,-2.26522 3.70985,-2.26522 0.30771,0 1.1638,-0.5857 1.90237,-1.30157 1.62471,-1.57474 5.27621,-3.00611 6.47389,-2.53774 0.46474,0.18174 1.43741,0.34406 2.16147,0.36072 0.72405,0.0167 2.23518,0.61292 3.35807,1.32503 1.12285,0.7121 3.02075,1.8274 4.21757,2.47845 4.34817,2.36541 4.81636,2.65564 5.92697,3.67428 0.62108,0.56969 1.75966,1.28423 2.5301,1.58784 0.77047,0.30364 1.93427,1.08135 2.58621,1.72827 0.65199,0.64691 2.83412,2.30404 4.84921,3.68251 2.01509,1.37848 4.34269,3.03321 5.17244,3.67718 2.18126,1.69292 8.1897,4.23001 12.28454,5.18724 1.18535,0.2771 3.8039,1.03861 5.819,1.69226 4.87166,1.58025 14.08964,3.05656 20.47424,3.27907 9.69737,0.33796 18.63272,1.80475 20.47424,3.36099 2.62575,1.64966 5.56957,2.26938 8.07926,4.30958 2.47708,2.06877 10.45531,10.26398 10.45531,10.73963 1.42114,3.28028 4.28143,5.58049 5.71306,8.92583 1.23005,2.47089 3.28383,4.03992 4.61962,6.37565 1.64765,2.66307 4.06152,4.74656 6.44383,6.29176 3.41671,1.84657 9.03167,5.06802 9.03167,5.06802 3.29159,-2.28583 8.11713,-3.53897 11.969,-1.24084 3.38028,2.15633 4.98604,4.79261 6.24212,10.24791 1.01301,2.6614 0.85278,4.30532 0.0317,6.86015 -1.87462,5.83295 -1.7704,6.17127 3.31506,10.76316 4.04744,3.65466 4.78934,5.15096 4.78934,9.65957 0.17856,3.48987 -1.3976,7.84487 -1.3976,7.84487 4.34652,0.16406 7.73344,-1.26402 12.82007,-2.11883 5.8588,-1.32571 11.84188,-2.25075 17.65189,-3.78857 4.02434,-1.08685 20.45127,-1.71936 31.05525,-1.19576 8.64373,0.4268 9.35572,0.32446 21.3363,-3.06692 2.07531,-0.58746 10.00808,-0.39222 12.91317,0.31782 2.14337,0.52389 6.85676,1.20682 15.75078,2.28221 1.65949,0.20065 4.18105,0.65121 5.60347,1.00123 1.42242,0.35003 3.847,0.94532 5.38795,1.32284 1.54097,0.37752 3.28666,0.95625 3.87934,1.28607 0.59267,0.32982 2.82329,0.92483 4.95693,1.32225 8.34305,1.554 10.49682,1.93493 14.65523,2.59198 20.89368,3.30133 24.82132,4.21412 42.24159,9.8169 8.36943,2.69183 12.62355,5.3662 14.87519,9.3514 2.37571,4.20479 2.7246,5.34308 2.64221,8.62112 -2.45016,8.45428 -7.2504,9.66807 -15.14671,13.64311 -7.25648,2.67036 -14.07818,5.45514 -20.90527,8.29402 -1.41144,0.58926 -2.99782,0.70152 -8.74668,0.61894 -7.99741,-0.11488 -8.98346,0.10757 -16.68449,3.76418 -3.71597,1.77794 -7.4684,3.4767 -11.20694,5.20593 -5.11437,1.32157 -9.03359,2.06395 -14.43618,2.91961 0,0 5.28816,3.2968 17.23793,8.90865 6.21573,2.85624 12.9343,6.67581 17.888,10.09981 3.81369,2.88341 7.87871,5.05991 11.53911,8.15586 3.11664,2.54818 6.3067,4.09546 9.38479,6.76693 0.34535,0.42043 2.66459,2.50156 5.15383,4.6248 9.66474,8.24358 17.9759,17.15333 25.21563,27.03165 3.14708,3.40825 5.62934,7.63593 8.08737,11.26398 2.86217,4.21058 8.87181,15.25831 9.57931,17.61 0.17833,0.59267 4.63113,10.17241 5.41482,12.11481 2.08917,5.17804 5.58532,11.56504 7.68188,23.23019 1.40808,7.83449 2.42644,11.67485 2.42644,22.85925 0.0248,8.17874 -1.19135,11.44277 -2.6169,17.44267 -2.10639,6.98991 -2.85859,8.99639 -5.00921,13.36215 -2.66867,5.41747 -5.95153,12.96535 -5.95153,13.68364 0,0.29974 -2.18213,4.90821 -4.84918,10.24109 -6.83822,13.67338 -10.37534,18.661 -20.57048,29.00644 -13.04214,13.23433 -25.60271,23.14067 -40.75692,30.96494 -8.81385,4.99448 -19.90975,10.75582 -31.94334,15.2142 -4.52499,1.14113 -15.40214,4.58866 -19.80218,5.98055 -9.46737,1.82441 -16.40792,3.69512 -26.38374,5.14403 -8.45699,1.25883 -30.75725,3.77136 -42.71863,4.15844 0,0 -2.80291,5.0724 -4.45907,7.63365 -2.08915,3.11296 -3.67983,6.69005 -5.63757,9.74179 -2.40847,4.56874 -4.96137,8.06996 -7.93672,12.38549 -1.05178,1.52585 -2.66635,3.65949 -3.5879,4.7414 -0.92152,1.08193 -3.8455,4.87666 -6.49768,8.4327 -2.65216,3.55606 -5.93731,7.6659 -7.30038,9.13302 -1.36302,1.46712 -3.63325,4.18266 -5.04498,6.03452 -2.76518,3.6274 -8.67295,9.03474 -12.03038,11.01135 -1.14229,0.6725 -3.53162,1.93617 -5.30965,2.80811 -3.09514,1.51795 -3.42699,1.58609 -7.79502,1.601 -3.93864,0.16046 -8.10674,-2.44004 -8.10674,-2.44004 0,0 -4.19327,2.1924 -7.94201,2.64956 -3.42837,-0.009 -8.00923,-0.11581 -13.4934,-4.59257 -2.83543,-4.75546 -2.3079,-5.95885 -2.53379,-10.99668 0,0 -2.95195,-1.26364 -4.23201,-1.99511 -1.34183,-0.74193 -1.9818,-1.42546 -3.82433,-2.35892 -2.97091,3.37328 -5.95422,7.23829 -8.53858,10.42907 -1.54095,1.90152 -3.37587,4.38856 -4.07759,5.52675 -1.41544,2.25631 -2.95793,4.2171 -4.5909,6.30209 2.61973,1.03472 5.60554,1.26745 8.02194,1.39545 4.32471,0.10663 8.72654,0.98901 12.9311,1.25914 6.73611,0.41568 9.98932,0.72608 11.42247,1.0897 6.96156,1.04456 15.67086,1.44589 20.25873,1.10398 2.01509,-0.14966 6.44938,-0.34979 9.85397,-0.44475 3.40458,-0.095 7.38089,-0.28276 8.83625,-0.41741 4.55762,-0.69921 9.0724,0.16489 13.44682,-1.29885 0.51698,-0.33875 1.52245,-1.64639 2.23441,-2.90584 1.9078,-3.37513 6.70163,-7.663 10.67875,-9.55177 1.82346,-0.86595 3.6542,-1.57444 4.06839,-1.57444 1.74518,0 3.46785,-0.94216 3.46785,-1.8966 0,-1.5519 2.05661,-13.27934 2.61541,-14.91383 0.94246,-2.75678 2.97066,-6.93129 4.06412,-8.36487 1.6462,-2.86591 4.04413,-5.3184 6.89813,-6.87598 2.73419,-1.43668 5.5689,-1.65881 9.21147,-0.72185 7.28444,1.87371 9.89794,5.18588 10.17147,12.89053 0.0735,2.07269 -0.13198,4.72387 -0.48293,6.22821 -0.9235,3.95874 -0.81264,4.0568 2.5832,2.28494 1.62173,-0.84622 4.43425,-1.946 6.25004,-2.44402 1.81574,-0.49802 4.5017,-1.30121 5.96878,-1.78488 2.57944,-0.85045 2.77367,-0.85578 5.89196,-0.16198 4.58563,1.02017 6.40141,2.44238 7.5172,5.88773 0.62409,1.92717 0.76043,2.98584 0.47965,3.72442 -0.21578,0.56751 -0.39233,1.58165 -0.39233,2.25364 0,2.48475 -4.63933,7.72843 -13.6151,15.38873 l -2.10428,1.79587 3.8726,0.031 c 6.48218,0.0522 7.86839,0.34742 10.5872,2.25455 3.52157,2.47022 6.00099,5.86321 6.00099,8.21206 0,2.24484 -2.73886,5.56981 -8.43254,10.23712 -1.19609,0.98047 -6.19413,2.67105 -9.02445,3.05247 -4.19221,0.565 -17.01391,1.38168 -17.67987,1.12613 -0.85229,-0.32707 -23.93387,-1.34588 -27.36346,-1.20781 -1.54095,0.062 -5.22631,-0.0899 -8.18969,-0.3375 -8.37957,-0.70027 -30.72019,-0.53172 -31.97079,0.24117 -10.6684,0.8939 -22.73144,0.90658 -32.03814,1.2407 -7.01754,0.41914 -14.49982,0.88544 -20.27078,1.07986 -6.63133,0.22009 -15.90871,0.61997 -20.61636,0.88859 -6.18835,0.35314 -10.84049,0.27621 -10.84049,0.27621 -1.16479,3.27889 -2.55403,6.18739 -3.42609,9.39993 -1.48076,4.12048 -2.62533,8.24132 -3.78388,12.33704 4.42211,4.98943 8.36107,7.85105 12.87066,11.76933 8.74072,7.6094 16.00749,13.12783 19.40095,14.73318 1.32604,0.62733 4.20825,1.44634 6.40495,1.82005 3.47536,0.59121 4.60218,0.60565 8.67918,0.11099 5.74486,-0.69699 7.84961,-1.59915 6.67468,-2.86092 -0.20974,-0.22522 -1.1619,-1.96121 -2.11595,-3.85777 -3.42033,-6.79914 -5.38098,-20.4127 -3.79683,-26.36247 0.94965,-3.56682 2.8126,-5.45304 6.69085,-6.77446 3.45942,-1.17876 8.06478,0.27822 10.5751,3.34562 1.6897,2.06466 5.18895,8.88598 5.62037,10.9563 0.16319,0.78301 0.5097,1.35268 0.76997,1.26595 0.26029,-0.0867 1.35793,-1.62049 2.43918,-3.40825 2.79964,-4.62882 10.00976,-11.60958 13.81947,-13.37981 1.50932,-0.70133 2.84816,-0.91039 6.03451,-0.94233 3.8045,-0.0384 4.29352,0.0586 6.89657,1.36509 4.77761,2.39782 7.75866,6.40779 7.75866,10.43669 0,4.13296 -2.6182,11.62644 -6.46563,18.50501 -0.4531,0.81009 -0.72398,1.63444 -0.60195,1.8319 0.12202,0.19746 1.42273,0.35974 2.8904,0.36061 2.81906,0 5.014,0.92665 5.8337,2.45825 0.23013,0.43004 0.37452,2.42854 0.32081,4.44123 -0.086,3.22631 -0.24706,3.88966 -1.36074,5.60598 -1.44884,2.23281 -3.36737,4.73933 -4.92696,6.43683 -1.55086,1.68803 -9.39714,6.72384 -14.00867,8.99083 -0.71122,0.34968 -1.77803,1.05521 -2.3707,1.56784 -0.59268,0.51262 -2.14441,1.45374 -3.44829,2.09139 -2.50251,1.22376 -7.39987,4.7758 -10.972,7.95798 -2.23703,1.99279 -5.29709,3.76763 -8.20913,4.76123 -2.3179,0.79088 -8.3335,0.77688 -10.18492,-0.0233 -0.79919,-0.34558 -2.51989,-1.08967 -3.82378,-1.65356 -1.30388,-0.56388 -3.72846,-1.8841 -5.38796,-2.93371 -6.95348,-4.39838 -14.94709,-9.01003 -16.88671,-9.74227 -3.82758,-1.69776 -7.7558,-3.7303 -11.30791,-5.16301 -5.31198,-2.79368 -9.70786,-5.46269 -14.34313,-8.07268 -2.92626,-2.26285 -11.52857,-8.75032 -11.52857,-8.75032 0,0 -1.98104,4.66338 -2.75995,7.11236 -0.79547,2.50102 -1.83359,6.27157 -2.22657,8.4052 -1.85526,10.07334 -4.25911,19.8297 -6.62696,26.89633 -1.87535,7.63247 -4.64713,14.2581 -7.42823,21.15406 -0.63531,1.58866 -4.18248,8.57434 -7.44681,14.66541 -1.07991,2.01509 -2.22073,4.50437 -2.22073,4.50437 0,0 1.64788,1.51936 3.3047,2.82333 1.65679,1.30387 5.3771,4.37607 8.26733,6.82713 8.72513,7.39942 14.26839,11.2679 23.04692,16.08394 2.738,1.62233 5.88501,3.19485 8.28574,4.90727 3.68165,2.41459 7.67042,4.19273 11.42247,6.33664 1.89657,1.0878 6.43818,3.38546 10.09246,5.10587 3.65433,1.72042 8.40651,4.09547 10.5604,5.27787 5.1765,2.7922 9.55857,4.90836 13.96222,7.21621 2.65684,1.40185 5.58923,2.52254 7.61072,4.44791 1.39011,1.34179 2.49384,2.87677 2.83183,4.14222 0.90537,3.38974 -0.31092,13.63328 -1.29126,19.45612 -0.93521,4.394 -2.55925,9.08069 -3.72544,12.65611 -1.51054,5.19052 -4.43271,10.59491 -6.94607,14.74776 -2.65105,4.37242 -10.39299,14.01337 -13.30222,16.56517 -5.1713,5.1771 -11.01094,10.0844 -16.45789,13.8634 -4.61762,3.1835 -9.63537,5.7849 -14.26283,8.8159 -4.77716,2.9746 -10.09917,5.1501 -15.02046,6.7112 -4.74147,1.4662 -13.02444,3.1031 -17.96888,4.2672 -7.4998,1.4945 -26.19203,1.9607 -27.43237,1.1763 z m 16.1771,-3.8719 c 6.89469,-0.5429 12.02657,-1.2066 13.41521,-1.7344 3.2875,-0.4892 8.11006,-1.1366 12.44699,-2.4268 3.79541,-1.1665 12.48209,-4.5871 13.02454,-5.1288 0.47135,-0.4707 4.46563,-2.885 7.35315,-4.4446 3.36123,-1.8153 15.01189,-9.7725 17.77966,-12.143 4.97783,-4.2633 12.98734,-12.46721 15.78422,-16.16734 2.85909,-3.40148 5.24316,-7.8828 7.45654,-11.10309 3.75866,-6.5786 5.57933,-12.59446 7.45605,-19.52522 1.70895,-5.67589 1.7884,-12.52572 1.7065,-19.26125 -0.64526,-3.50698 -4.85018,-4.31988 -4.85018,-4.31988 0,0 -7.49949,0.47509 -10.55464,0.7389 -3.66542,0.34077 -8.91519,1.14657 -15.5005,2.29865 -7.71135,1.40776 -13.40942,2.70683 -20.01623,4.84395 -2.50406,0.66836 -5.23175,1.45896 -6.06149,1.75673 -4.44075,1.59399 -8.05879,3.18788 -9.23553,4.0685 -4.2166,2.21986 -7.18238,4.00189 -9.75328,5.68899 -3.39674,1.8029 -6.18297,3.86278 -9.39746,5.96304 -1.27482,0.77528 -5.87782,4.30295 -6.01752,4.61165 -3.31542,3.01197 -6.94854,5.52185 -9.89708,9.26933 -1.35665,1.75328 -3.77799,4.87532 -5.3808,6.93787 -4.1593,5.34246 -7.63311,9.78008 -11.65174,15.10317 -1.57665,2.0865 -6.02646,9.3008 -7.21215,11.6775 -0.87831,2.1511 -4.18848,8.0013 -6.64528,12.915 1.835,4.5948 7.47522,7.5383 11.1819,8.4276 5.48501,1.5786 11.33085,2.9666 17.02595,2.5637 1.06681,-0.092 4.46122,-0.3675 7.54313,-0.6102 z m -37.39238,-14.077 c 0,0 5.76709,-11.7449 8.3975,-16.2285 1.35879,-2.5175 2.89928,-5.3327 4.42605,-7.2846 2.16708,-3.05286 4.00148,-5.64464 6.25477,-8.52089 0.75833,-0.66539 7.79539,-9.53704 8.71849,-10.99152 1.92638,-2.75155 4.08748,-4.76711 6.2828,-7.30772 2.03817,-1.91163 6.14175,-5.07068 6.14175,-5.07068 -2.25132,-4.3982 -3.43576,-9.48682 -3.46501,-13.29682 -0.0155,-4.82473 0.70461,-7.9267 2.8454,-12.25599 2.45918,-5.66502 7.40029,-8.6272 12.35997,-8.69806 7.06124,1.05598 16.09193,9.14405 19.50945,14.88427 0.22737,0.25977 4.7464,-1.71192 4.7464,-1.71192 0,0 -1.71774,-3.67431 -2.18995,-5.48415 -1.31764,-4.65335 -0.82002,-9.87272 0.76305,-13.08073 2.70825,-5.45827 12.35058,-10.20872 12.35058,-10.20872 -0.89569,-0.65857 -9.08388,-4.83762 -12.4642,-7.01681 -1.30388,-0.84251 -4.31036,-2.65995 -6.68106,-4.03861 -9.0032,-5.23604 -12.09489,-7.35983 -16.20629,-11.13279 -1.47846,-1.35672 -4.23969,-3.67193 -6.13611,-5.14491 -1.89639,-1.47297 -4.59641,-3.74494 -6,-5.04882 -1.40362,-1.30387 -3.25207,-2.67786 -3.25207,-2.67786 0,0 -3.0624,4.67206 -4.83861,7.2037 -0.50112,0.71123 -3.9203,6.09181 -4.43732,6.8995 -5.06869,7.91876 -8.78494,11.01709 -14.39518,15.35963 -5.27904,4.08614 -12.14968,8.37845 -15.71417,9.81715 -4.24418,1.58322 -8.08871,3.64237 -12.42584,5.00335 -2.53376,0.79067 -5.25539,1.71285 -7.50943,2.47264 0,0 2.85445,10.32865 3.00893,11.59462 1.17747,4.62912 1.97977,10.33254 2.56203,13.9396 0.49364,3.41948 1.22344,6.56269 1.91333,9.67625 0.81958,2.86546 3.37696,13.06964 5.21046,22.00497 0.26755,1.30387 1.16609,4.69829 1.99677,7.54312 0.8307,2.84492 1.86812,6.9182 2.30541,9.0517 0.77527,4.1902 2.28188,8.5274 3.43738,12.2846 1.31036,4.4223 2.48472,7.465 2.48472,7.465 z M 124.7645,1008.0585 c 4.04061,0 12.42946,-0.098 12.42946,-0.098 l 0.2775,-4.1904 c 0.46462,-7.01614 0.33995,-10.70384 -0.42915,-12.69458 -1.08848,-2.81747 -2.43337,-3.71853 -4.86603,-4.42322 -1.75488,-0.50835 -2.6273,-0.11494 -5.02733,0.90921 -3.46232,1.80044 -8.50185,7.56025 -10.1926,10.57154 -1.69384,2.13915 -5.52473,9.23895 -5.79902,10.17615 5.09738,0.48 9.66431,0.088 13.60717,-0.2509 z m -9.08805,-14.36196 c 2.45347,-3.88855 6.31555,-6.55553 9.54887,-9.24542 1.87495,-1.57765 5.53699,-2.70047 7.14014,-2.18925 3.68861,1.17633 5.56636,2.82905 7.43317,6.54215 1.64895,3.27976 1.05195,18.86388 1.05195,18.86388 2.05273,-0.3717 5.4442,-1.6273 6.1026,-2.3425 0.8265,-0.8978 1.55711,-3.7208 3.06917,-8.94886 1.37774,-5.58979 3.24984,-9.17557 5.40356,-14.24679 1.13142,-3.39301 7.82987,-16.23493 10.68808,-20.97151 3.75232,-5.79147 7.42909,-11.71503 11.20945,-17.52972 3.78037,-5.81469 7.66434,-11.52051 11.83108,-16.87652 1.36316,-1.73965 2.47847,-3.30245 2.47847,-3.47287 2.05772,-2.93568 4.68643,-5.91556 6.96618,-8.52717 0.82874,-0.9483 4.58272,-4.73053 6.44572,-6.98271 1.863,-2.25218 1.75437,-1.84956 3.03378,-3.50677 3.72864,-3.98096 10.0758,-11.69899 11.73418,-10.30567 1.83221,1.41423 0.035,2.93192 -3.14071,5.99639 -1.82656,1.90315 -5.00525,5.31154 -4.6422,5.44638 2.14157,0.36238 5.80267,-0.007 8.03705,-10e-4 5.56101,0 10.52718,-1.41667 27.66949,-7.89318 7.58641,-2.86611 23.3572,-12.08818 30.08711,-17.5937 3.78343,-3.09497 14.32628,-13.28497 20.08834,-19.4159 1.57914,-1.68016 6.22162,-8.19739 6.22162,-8.73391 0,-0.11971 1.13238,-1.7265 2.51643,-3.57081 2.34442,-3.12392 3.26059,-4.43592 5.8031,-8.31009 0.54452,-0.82973 1.5391,-2.76938 2.21018,-4.31043 0.67108,-1.54095 1.94367,-3.87502 2.82799,-5.18683 4.77622,-7.08521 10.47423,-18.28712 12.81127,-25.18595 2.26532,-6.68706 6.90724,-18.45449 9.20828,-23.34326 0.90613,-1.92518 1.7841,-4.05881 1.951,-4.74141 1.11178,-3.69649 3.25841,-7.46076 4.83588,-10.50837 1.48404,-2.87324 3.00245,-5.72757 4.52421,-8.58082 -1.3357,-1.78452 -2.83335,-3.70526 -4.12463,-5.49582 -1.51796,-1.91543 -3.38169,-4.31566 -3.33937,-5.45423 0.0914,-1.05366 0.5487,-1.16923 1.34893,-1.09505 0.80522,0.17907 2.26626,1.43649 4.44046,3.87261 2.17419,2.43611 4.76439,5.79948 7.14218,9.32185 2.19897,3.25756 4.43098,6.40775 4.95989,7.00043 0.52893,0.59268 2.04175,2.53234 3.3618,4.31037 8.51965,11.47552 17.9634,22.10049 23.89783,26.88702 3.1784,3.24191 6.69737,4.68396 10.23712,7.39052 0.40185,0.48875 1.2807,0.97233 6.89658,3.79471 3.16634,1.64334 6.46185,2.47734 9.6351,4.13826 4.18351,2.17544 8.08991,3.88377 12.34777,6.21918 3.49277,1.90497 7.10571,3.84251 10.23545,6.11702 1.48262,1.08492 4.15041,2.67936 5.92842,3.54336 2.88411,1.40126 3.60839,1.57278 6.71525,1.5896 3.08967,0.0168 3.79774,-0.13923 6.27733,-1.38278 1.53715,-0.77081 3.17052,-1.74601 3.62962,-2.16684 0.45914,-0.42092 1.51367,-1.23029 2.34341,-1.79856 0.82976,-0.56838 2.50942,-1.87234 3.73257,-2.89777 1.22315,-1.02553 2.35432,-1.86449 2.51368,-1.86449 0.15935,0 1.09824,-0.64877 2.08643,-1.4416 0.9882,-0.79294 2.86351,-2.01978 4.16739,-2.72633 1.30389,-0.70669 3.34054,-1.88131 4.52588,-2.61041 1.18536,-0.72905 3.58779,-2.16923 5.3387,-3.20035 1.75091,-1.03117 3.78756,-2.23135 4.52588,-2.66705 3.19349,-1.88469 7.57661,-7.68301 8.1986,-10.84578 0.42026,-2.13687 -0.20353,-2.59096 -3.50156,-2.54907 -2.36593,0.0301 -3.36675,0.27677 -5.24643,1.29311 -2.49235,1.3476 -2.44192,1.31695 -6.24125,3.79369 -2.17531,1.41802 -2.67328,1.58345 -3.55605,1.18125 -0.71802,-0.32716 -1.02651,-0.82289 -1.02651,-1.64966 0,-0.92793 0.90793,-2.0673 4.22515,-5.30205 6.28546,-6.12926 7.47193,-7.82255 9.96612,-14.22287 1.76991,-4.54176 2.22978,-6.27426 2.43125,-9.15911 0.21453,-3.07239 0.13202,-3.74165 -0.60471,-4.90467 -1.30193,-2.05532 -4.95931,-3.94403 -8.30027,-4.28632 -2.51713,-0.25789 -3.07946,-0.16224 -5.34322,0.90867 -1.39151,0.65832 -3.62321,2.18458 -4.95934,3.39174 -1.33607,1.20712 -2.90126,2.61557 -3.47816,3.12988 -1.70875,1.52333 -4.13188,4.59481 -4.47316,5.67016 -0.17457,0.55014 -1.09333,2.57144 -2.04165,4.49183 -0.94829,1.92036 -1.87894,3.89865 -2.06808,4.39611 -0.18913,0.49745 -0.85117,1.176 -1.47122,1.50781 -1.0322,0.55245 -1.22,0.51626 -2.22604,-0.42888 -0.79314,-0.74509 -1.06517,-1.39501 -0.97807,-2.33661 -0.28002,-5.89843 -2.89516,-11.66782 -4.68997,-15.02141 -0.9763,-1.82122 -3.86222,-3.73998 -5.62504,-3.73998 -2.31152,0 -4.52691,2.0126 -5.71631,5.19308 -1.1809,4.39696 -0.88464,6.8259 -0.25349,11.08943 0.50866,3.47953 1.26071,7.4985 2.9552,10.91057 0.58187,1.41189 2.30099,4.39376 4.17284,6.18514 1.48398,1.42018 1.69411,2.81179 0.56855,3.76529 -0.72479,0.61396 -3.9167,1.75182 -5.29831,1.88867 -1.99422,0.6678 -4.1266,1.21762 -5.93679,1.51035 -5.39136,0.85802 -11.61851,0.11647 -16.45901,-1.96 -2.0151,-0.86441 -4.05175,-1.91398 -4.52589,-2.33239 -0.47413,-0.4184 -2.21984,-1.69346 -3.87932,-2.83346 -3.10631,-2.13389 -3.94847,-2.82058 -11.08661,-9.03987 -2.30455,-2.00791 -4.72912,-3.99279 -5.38797,-4.41093 -1.8847,-1.19608 -10.95948,-9.52259 -12.53282,-11.49936 -0.78155,-0.982 -2.8182,-3.16765 -4.52588,-4.85706 -6.35925,-6.29115 -10.23561,-10.4248 -14.29838,-15.24744 -2.29669,-2.72632 -4.70542,-5.53882 -5.35271,-6.25004 -0.64724,-0.71121 -1.83509,-2.26294 -2.63966,-3.44829 -0.80458,-1.18536 -1.73032,-2.42726 -2.05717,-2.7598 -1.18625,-1.20682 -3.85739,-5.03451 -4.14446,-5.93895 -0.63396,-1.99756 0.958,-2.15157 3.55306,0.3858 0.62096,0.60716 2.14033,2.26106 2.70473,2.76667 2.40533,2.77124 3.8925,4.70541 6.28149,7.76021 4.06919,-3.50191 9.42085,-7.17056 14.56848,-8.15844 2.24567,-0.38465 5.483,0.34006 7.96981,0.94032 3.96221,1.8538 5.84989,3.33989 8.88245,6.2111 2.75608,-4.68609 4.28404,-7.47538 5.98221,-10.68966 1.98104,-3.53656 3.92999,-6.57844 5.8334,-9.90768 0.44574,-0.71389 3.40403,-5.59321 7.96523,-11.64006 1.67612,-2.22207 6.37372,-8.96496 7.75708,-10.96113 l 2.51519,-3.62942 c -3.72678,-2.45045 -6.84843,-4.72204 -10.40367,-7.39642 -0.63863,-0.47414 -3.5192,-2.80173 -6.40128,-5.17244 -2.88205,-2.3707 -6.85646,-5.52985 -8.83203,-7.02038 -1.97558,-1.49048 -5.14369,-3.96294 -7.04025,-5.49433 -1.89657,-1.5314 -4.6121,-3.69993 -6.03451,-4.819 -1.42243,-1.11905 -3.41313,-2.94518 -4.42377,-4.05808 -1.01066,-1.11285 -3.11223,-3.0576 -4.67021,-4.32166 -2.49574,-2.02491 -4.49898,-4.12377 -11.45544,-12.00226 -5.03542,-5.70286 -8.54555,-11.14639 -8.54555,-13.25243 0,-1.63015 -0.0818,-1.59255 1.6193,-0.74393 1.21592,0.60656 4.4718,4.30455 7.01009,7.96186 1.38699,1.9985 7.69353,9.04951 10.96191,12.25596 5.1461,5.0486 15.88016,14.89935 16.23533,14.89935 0.38289,0 6.30172,4.51312 9.21669,7.02773 0.94828,0.81807 2.50001,2.00739 3.4483,2.64296 1.78371,1.19552 2.97272,2.16867 9.1181,7.46301 3.49163,3.00643 7.47881,5.14587 11.00937,7.43538 1.50382,1.09719 4.04639,2.54008 5.47351,3.75562 1.36151,1.15961 6.9237,3.39407 6.9237,3.39407 1.09116,-2.902 2.13523,-5.93181 3.773,-8.49141 1.53855,-2.1282 2.53551,-4.83579 3.51691,-6.78776 2.73855,-5.4311 2.93609,-7.57344 0.96686,-10.48574 -1.19178,-1.76255 -1.77557,-2.94178 -3.48093,-7.03146 -1.09173,-2.61812 -2.45664,-8.13336 -2.82686,-11.42247 -1.04505,-9.285 -1.39609,-14.37753 -1.456,-21.12079 -0.0387,-4.3858 -0.21013,-9.81686 -0.38035,-12.06903 -0.17026,-2.25217 -0.28017,-6.54525 -0.24426,-9.54014 l 0.0653,-5.44533 -6.74642,-0.20069 c -5.65024,-0.1681 -7.07904,-0.34892 -8.7938,-1.11271 -1.75483,-0.78164 -2.04742,-1.08868 -2.04742,-2.14856 0,-0.68012 0.10384,-1.34043 0.23074,-1.46733 0.12694,-0.1269 1.43621,0.0281 2.9095,0.34406 3.2664,0.7009 10.72164,0.76957 15.26899,0.14065 4.54029,-0.62798 11.27059,-3.48205 13.64757,-5.78744 0.97876,-0.94933 2.30192,-2.06187 2.94032,-2.47231 1.05069,-0.67547 1.22441,-0.68263 1.83191,-0.0751 0.37491,0.37492 0.67117,1.40312 0.67117,2.3295 0,1.71661 -0.17513,1.94174 -4.26331,5.48073 -1.4403,1.24685 -1.45083,1.28155 -0.72569,2.38827 0.40474,0.61764 2.03226,1.95268 3.61675,2.96675 1.58449,1.01405 3.68359,2.53169 4.66472,3.37251 1.83669,1.5741 2.82704,2.25682 7.26792,5.01025 1.42243,0.88189 3.55606,2.22702 4.7414,2.9891 2.59114,1.66596 9.80354,5.38296 10.44502,5.38296 0.5637,0 6.25431,2.56036 10.02921,4.5124 1.54095,0.79685 4.64442,2.07065 6.89658,2.83069 2.25217,0.76001 4.28881,1.51945 4.52589,1.68765 1.40578,0.99724 14.16865,4.85382 16.59491,5.0145 0.82975,0.055 2.28449,0.30039 3.23278,0.54544 3.26652,0.84397 29.35811,0.59797 36.42259,-0.34341 1.77803,-0.23694 5.07546,-0.64155 7.32762,-0.89914 4.93102,-0.56402 13.94003,-1.66915 15.73283,-1.92997 7.54061,-1.5229 17.84692,-2.96083 22.38457,-4.27416 8.00042,-2.49317 13.7788,-5.39948 21.07651,-7.59991 9.22091,-3.92073 20.7956,-9.66799 26.76104,-12.87127 9.05945,-5.39648 16.87505,-9.32955 24.39042,-15.67835 5.86353,-5.02459 7.70012,-6.71189 12.41339,-11.40416 6.90507,-5.64106 11.69367,-12.99807 16.65861,-20.34528 2.22678,-3.37325 6.95801,-11.27031 8.72086,-16.92233 1.61227,-3.92772 2.84581,-8.62104 5.08611,-11.96505 1.21078,-1.74715 5.82818,-12.70636 5.82818,-13.83296 1.86547,-6.23474 3.57178,-13.10482 4.17726,-19.37013 0.21245,-2.88346 0.13177,-13.44667 -0.1057,-13.83085 -0.68026,-4.11507 -1.05476,-8.27529 -2.33461,-12.46239 -1.85355,-7.00762 -4.11828,-12.55594 -6.47495,-18.96562 -0.73859,-2.01509 -2.71316,-6.47632 -4.388,-9.91383 -2.22796,-5.83735 -5.74666,-11.70863 -8.49082,-16.65009 -1.86527,-3.73834 -4.55686,-7.18547 -6.81111,-10.50521 -2.23951,-3.29859 -4.84642,-5.94999 -7.27582,-9.11264 -2.0047,-2.71843 -6.45641,-7.96392 -7.23037,-8.5197 -3.72832,-4.96816 -8.85753,-8.14454 -13.08925,-12.15054 -2.0307,-1.93811 -3.54191,-3.16709 -8.95948,-7.28629 -3.87777,-3.44848 -8.68865,-5.678 -12.50891,-9.07332 -3.5875,-2.84486 -7.05696,-4.81989 -10.99143,-7.26205 -4.32331,-2.70397 -9.50086,-4.97027 -13.57764,-6.94505 -6.14448,-2.72078 -10.66611,-5.51865 -16.32651,-8.1418 -5.33472,-2.52606 -9.6247,-4.28151 -13.1995,-5.4012 -6.24531,-2.12511 -11.81247,-3.04215 -17.67251,-4.97291 -7.08141,-2.34815 -17.12952,-5.09837 -22.84493,-6.25281 -1.54096,-0.31125 -4.06252,-0.89677 -5.60349,-1.30115 -1.54095,-0.40438 -5.83101,-1.3731 -9.53345,-2.15268 -6.30365,-1.32729 -8.15874,-1.79837 -11.37182,-2.88765 -2.73932,-0.92867 -3.22679,-0.9131 -4.24679,0.13561 -3.68728,3.12392 -4.79469,4.21009 -9.13927,6.84099 -4.5816,2.71459 -7.82507,5.83612 -12.26562,8.62095 -3.2909,2.41701 -6.82388,4.3707 -10.33988,6.66152 -1.13626,0.90593 -10.01331,4.96033 -14.65523,6.69343 -1.77802,0.66387 -3.81467,1.51163 -4.52588,1.88392 -0.71121,0.3723 -2.45691,1.01231 -3.87933,1.42223 -1.42243,0.40994 -3.55606,1.16459 -4.7414,1.67703 -1.18536,0.51243 -3.57994,1.06024 -5.32128,1.21734 -1.74139,0.15711 -3.5154,0.47256 -3.9423,0.70105 -0.42687,0.22844 -1.71764,0.5075 -2.86839,0.62005 -2.3266,0.22759 -5.88765,0.78203 -12.65264,1.96997 -2.48924,0.43706 -6.56254,1.01224 -9.05177,1.27815 -2.48924,0.26585 -5.84365,0.6718 -7.45431,0.90202 -1.66599,0.2382 -6.49715,0.30061 -11.20695,0.14488 -5.70752,-0.18876 -9.34945,-0.10858 -11.72682,0.25827 -3.94209,0.60824 -5.44981,0.75544 -10.56041,1.03105 -14.26821,0.76948 -14.45274,0.82091 -17.11706,4.77334 -1.12448,1.66811 -3.09514,4.25834 -4.37925,5.75602 -1.2841,1.49771 -3.08005,3.82532 -3.99101,5.17244 -0.91099,1.34716 -2.28932,3.25152 -3.06303,4.23191 -0.77367,0.98039 -2.92049,3.79291 -4.77066,6.25003 -1.8502,2.45713 -4.46839,5.92223 -5.81823,7.70026 -2.89054,3.80752 -5.25753,7.20732 -5.25753,7.55155 0,0.13462 -0.45155,0.73172 -1.00345,1.3269 -1.08669,1.17194 -7.32965,12.63553 -7.84077,14.39753 -0.17195,0.59267 -1.3073,3.01864 -2.52304,5.39106 -2.68414,5.23791 -3.04303,6.12252 -3.93312,9.69521 -1.58548,3.83237 -2.06501,8.22564 -2.99376,11.96779 -2.08286,8.28249 -3.16916,14.11006 -3.83532,20.57549 -0.26276,2.55009 -1.10884,8.49551 -1.87091,13.14661 -0.36902,2.25216 -0.74247,7.39228 -0.82988,11.42247 -0.0874,4.03019 -0.35987,8.6854 -0.60543,10.34488 -0.24557,1.6595 -0.53109,3.69614 -0.63445,4.52589 -0.35289,2.83315 -1.03694,30.80416 -1.31759,53.87958 -0.0937,7.70477 -0.32716,20.40958 -0.51871,28.2329 -0.19159,7.82332 -0.18388,15.38801 0.0173,16.81042 0.20099,1.42243 0.25125,5.8937 0.11167,9.93618 l -0.2537,7.34999 3.99407,2.63897 c 6.50051,4.29508 17.70763,13.77077 19.64993,16.61415 1.37431,2.01191 2.45717,5.82856 2.07859,7.32633 -0.56682,2.24217 -2.75321,4.91019 -4.85468,5.92412 -1.95927,0.94531 -2.70851,1.02513 -10.90338,1.16178 -4.83972,0.0807 -10.92643,-0.0363 -13.52601,-0.25944 -2.59958,-0.22341 -4.94554,-0.32213 -5.21326,-0.21935 -0.80728,0.30973 -2.53708,3.94065 -2.17346,4.56221 2.31502,2.68955 4.09291,5.98595 6.08322,8.80194 3.95314,4.88837 5.98793,11.13887 7.49284,16.36306 2.0641,7.14339 2.6307,10.70384 2.6023,16.35227 -0.35617,5.09623 -0.81767,10.7115 -4.13934,14.44043 -1.71504,1.61121 -3.75312,0.86759 -6.29981,-2.29842 -2.17742,-2.70704 -6.52878,-8.99225 -7.65965,-11.06381 -2.6201,-4.79968 -6.95939,-9.98729 -11.0376,-13.19541 l -3.01492,-2.3717 c -1.82117,2.33429 -3.89747,4.65222 -5.51516,6.77034 -1.44037,1.93825 -3.02922,3.7373 -4.67409,5.49818 l 0.49064,3.91191 c 0.26986,2.15161 0.68386,4.38743 0.91997,4.96857 0.23618,0.58116 0.61062,3.97557 0.83217,7.54314 0.22151,3.5676 0.60453,7.98585 0.85113,9.81841 0.24659,1.83251 0.45703,6.62067 0.46763,10.64035 0.0271,10.32704 -0.77186,12.62183 -5.32446,15.28986 -1.77998,1.04311 -2.14863,1.11005 -3.92328,0.71234 -5.30329,-1.18851 -8.90143,-3.81748 -17.70379,-12.93542 -12.56003,-13.01028 -11.81495,-12.3495 -13.10853,-11.62523 -1.11986,0.62699 -1.17231,0.82182 -1.44734,5.37705 -0.47129,7.80569 -1.48974,13.62821 -3.76713,21.53692 -0.82077,2.75269 -1.48815,5.56901 -2.5364,8.24073 -0.80701,1.56942 -2.98708,7.79453 -3.43784,8.78522 -1.13584,2.4964 -6.29192,10.77592 -8.0137,10.77592 -2.85745,0 -6.26446,-3.85187 -8.88029,-10.03975 -3.93276,-9.30319 -4.08278,-9.92251 -5.22898,-21.58744 -0.40967,-3.5643 -0.34493,-7.08688 -0.0596,-10.64156 -2.35873,0.33142 -4.84319,0.54394 -6.93608,0.70543 -3.55051,0.27147 -3.93639,0.39807 -5.86857,1.92535 -3.33213,3.578 -6.41608,6.99905 -8.82987,10.93036 -0.49379,0.81523 -1.59151,2.51632 -2.43936,3.78019 -1.43725,2.14252 -5.08459,8.24669 -7.29673,12.21184 -1.73527,3.00744 -3.65162,5.92777 -5.36735,8.83625 -2.68772,4.5651 -6.13906,7.75866 -8.38496,7.75866 -1.26689,0 -2.88759,-1.9723 -3.87185,-4.71187 -1.72674,-4.80616 -1.57602,-19.27541 0.24725,-23.73655 0.33911,-0.82974 1.1189,-2.96338 1.73286,-4.74141 1.2074,-3.49664 4.44534,-10.07664 6.1522,-12.50221 0.58304,-0.82854 2.08483,-2.75653 3.33731,-4.28433 1.25248,-1.52781 2.27724,-3.08588 2.27724,-3.08588 0,0 -3.29728,-2.23146 -5.37166,-3.35298 -1.67786,-1.01008 -2.76906,-1.83501 -5.04066,-2.98255 0,0 -14.99253,12.88971 -20.17262,18.01826 -3.90705,4.19509 -8.18846,7.99067 -12.85632,11.06808 -2.06575,1.37026 -3.85975,1.66789 -4.8193,0.79948 -2.01575,-1.82419 -1.95658,-7.00762 0.16252,-14.23827 0.3474,-1.18534 0.85503,-3.02803 1.1281,-4.09484 0.92335,-3.60735 3.57054,-8.65177 6.85269,-13.0583 3.06704,-4.11774 8.15184,-10.0519 10.53044,-12.2895 1.33733,-1.25807 2.4272,-2.51885 2.42197,-2.80174 -0.005,-0.28293 -1.27896,-1.83263 -2.83049,-3.44381 -2.13674,-2.21889 -2.92929,-2.5917 -3.73595,-3.03376 -3.02673,0.0915 -6.10264,0.71031 -9.32813,1.84768 -1.40255,0.37073 -4.3062,1.76475 -7.15637,3.36537 -0.47413,0.26624 -2.4138,1.24414 -4.31037,2.17306 -5.00164,2.44976 -13.6447,7.06788 -14.65524,7.83046 -0.23707,0.17893 -1.15306,0.43614 -2.03551,0.57161 -2.57401,0.39513 -3.58179,-0.71272 -3.51312,-3.86183 0.0461,-2.11376 0.44212,-3.31307 2.48281,-7.51887 4.78553,-9.86294 11.56424,-15.82409 23.64783,-20.79576 2.03358,-0.83668 2.03837,-1.55759 0.0267,-4.0126 l -1.58972,-1.94005 -3.04392,0.28026 c -3.93697,0.36246 -6.2968,1.12271 -12.09569,3.89691 -3.42232,1.22856 -7.35711,2.93662 -10.56039,5.15292 -1.73828,1.34826 -3.68134,2.55671 -5.0721,4.14109 -1.656321,1.9114 -3.935212,3.41045 -5.184614,3.41045 -1.300487,0 -2.674387,-1.98734 -2.674387,-3.86851 0,-2.49884 1.47301,-7.64133 3.356642,-11.71842 1.448736,-3.13579 2.289666,-4.2808 5.324179,-7.24943 4.04462,-3.95684 10.38154,-8.49892 13.2866,-9.52342 l 1.92422,-0.67862 c -1.56371,-1.5336 -3.31961,-3.019 -4.93648,-4.24626 -1.25494,-0.94829 -3.01437,-2.36592 -3.90986,-3.15033 -1.6142,-1.41397 -1.63994,-1.42004 -3.00664,-0.71332 -0.75816,0.39208 -3.86996,3.01657 -6.915103,5.83223 -3.045148,2.81566 -6.36502,5.65633 -7.377521,6.31253 -1.012491,0.65626 -2.964258,2.11475 -4.337265,3.24114 -2.867775,2.35263 -3.738058,2.66005 -6.121082,2.16221 -2.394035,-0.77044 -3.495376,-2.70028 -3.48493,-5.06374 0.779746,-4.87321 1.186044,-6.32473 2.413024,-8.62072 0.89312,-1.88778 2.350073,-3.64957 3.231981,-5.38796 2.696927,-4.28141 5.546925,-7.79534 8.398014,-11.55692 -2.777164,-2.32829 -5.796936,-4.64622 -8.406324,-6.59533 -2.370699,-1.76816 -5.504413,-4.1292 -6.963801,-5.24684 -4.364501,-3.40887 -9.755712,-6.1248 -13.725961,-8.51552 -4.177064,-2.54474 -9.963643,-5.03852 -14.439729,-6.22287 -7.257883,-1.9204 -11.155367,-2.3901 -16.132712,-1.94411 -7.290311,0.65324 -7.869565,0.83725 -11.109921,3.52955 -3.559536,2.95747 -4.946167,7.16064 -5.090804,15.43123 -0.128968,7.37526 1.326686,12.0324 5.078199,16.24677 3.28283,3.77839 6.722982,7.54428 10.180168,10.88433 2.10661,2.02841 5.508092,5.33675 7.558855,7.35184 2.050763,2.01511 5.736447,5.5065 8.190426,7.75866 5.091037,4.67236 6.235773,5.85356 10.022964,10.34212 1.498914,1.77651 2.972663,3.52222 3.275008,3.87934 3.085053,3.37482 5.647911,7.24272 8.394299,10.82711 0.877962,1.11847 1.472045,2.53114 2.262946,3.47847 1.243051,2.41809 2.750119,4.15905 4.094849,6.40792 0,0.20375 1.551725,3.58872 3.44829,7.52215 1.990099,3.4487 3.411695,7.76333 4.692918,11.04618 1.669943,6.29092 3.614262,11.88726 4.672593,15.44754 1.016601,3.27683 2.627887,7.3706 3.565584,11.28177 0,0.50264 2.645527,8.03087 5.280518,15.02649 1.207753,2.73007 1.809256,5.95451 2.99776,8.52406 1.818847,7.17208 4.894337,14.72875 6.860727,21.09864 0.92168,2.93256 2.99212,5.58399 4.04473,8.30854 1.58415,3.35629 3.65828,6.20052 5.59568,9.48278 3.17432,5.0378 6.37066,9.66843 10.84857,13.36218 1.85126,-1.37417 6.57784,-6.99567 6.61361,-2.51595 0,1.55766 -0.26905,2.00679 -2.52337,4.21265 -2.72163,2.66312 -6.57173,5.0224 -10.64971,6.52591 -2.93358,1.42725 -5.98849,2.04665 -8.80979,3.31067 -3.6279,1.9751 -6.4237,2.32479 -9.77002,4.04346 -0.28813,0.23914 -1.844623,1.11003 -3.458866,1.93527 -4.179387,2.15741 -7.727038,4.81059 -11.771236,7.23461 -5.797476,3.45456 -13.074592,9.9584 -17.241471,13.22288 -3.549658,2.68176 -10.17853,7.56998 -14.655246,11.77043 -5.818022,5.12581 -10.598303,11.49052 -15.768983,17.07072 -1.543265,1.65169 -3.457777,4.2502 -6.434249,8.7329 -2.203513,3.3186 -2.272227,3.88109 -1.487064,12.17241 0.198529,5.73052 1.810235,10.76491 3.000544,16.11905 0.189404,0.78892 1.039827,4.00455 1.299952,4.92177 2.957459,-2.12405 6.712196,-5.26683 10.08884,-6.6153 4.99151,-1.9221 12.971284,-2.07252 16.53422,-0.31177 0.540765,0.26724 1.994392,2.24415 3.230271,4.39306 2.123688,3.69256 2.255392,4.09864 2.39888,7.39811 0.152021,3.49592 -0.537546,7.34255 -1.836769,10.24611 -0.33201,0.74204 -1.504954,3.38574 -2.606533,5.87499 -2.336288,4.88516 -7.973328,11.39022 -8.857833,12.51379 -0.0047,0.27527 2.458205,2.42861 4.25736,3.89982 1.688735,1.30177 2.704747,2.14256 4.466537,3.62958 4.011491,-6.3286 9.10078,-10.0575 13.642003,-13.4258 5.488743,-3.76199 6.475439,-3.90526 9.921714,-5.15338 2.46501,-0.89274 6.90421,-1.35709 9.047984,0.0617 1.750335,1.1583 4.02513,4.02123 4.829159,6.0776 0.865653,2.21399 2.107906,8.93749 2.099356,11.36241 -0.0178,5.05787 -0.73031,7.34425 -1.434039,10.35099 -0.408907,1.74711 -2.425618,7.29171 -2.425618,7.29171 0,0 3.246197,0.9433 5.501917,1.3295 1.34635,0.3534 3.12161,0.6549 4.80165,0.7791 2.61638,-3.9671 4.06562,-8.69273 8.13688,-14.21246 z m 36.44921,-197.52446 c -1.67728,-0.75504 -3.39286,-3.57613 -4.05647,-6.67037 -0.62756,-2.92626 0.0577,-7.82612 1.81213,-12.95861 2.03442,-5.95132 3.28512,-7.35223 6.56383,-7.35223 2.50514,0 3.56027,0.75646 4.50921,3.23277 1.96607,5.13059 -0.1584,19.76488 -3.30722,22.78168 -1.47576,1.41388 -3.67348,1.79867 -5.52148,0.96676 z M 253.33,795.25191 c -2.6409,-1.14655 -6.46123,-4.86628 -7.89885,-7.69082 -1.1376,-2.23501 -1.37326,-3.24825 -1.54471,-6.64124 -0.3221,-6.37447 1.57674,-9.91005 5.80261,-10.80432 2.04742,-0.43323 2.39097,-0.38577 4.05721,0.5607 2.65068,1.50561 5.38015,4.31959 6.42947,6.62856 0.50376,1.10851 1.12503,2.39876 1.38061,2.86722 0.96718,1.77294 0.93331,6.40179 -0.0689,9.41345 -1.12389,3.37734 -2.25682,4.93188 -4.17987,5.73537 -1.75004,0.73121 -2.15065,0.72427 -3.97755,-0.0689 z M 451.12616,482.25154 c -7.22704,-1.84721 -12.91309,-8.10582 -16.34811,-13.6089 -3.3221,-6.61682 -5.06322,-13.94908 -5.48033,-21.05429 -0.24845,-9.79443 5.36181,-26.41379 10.36157,-32.8297 7.04516,-10.94693 18.11239,-23.04192 32.3442,-29.50521 8.91262,-2.9579 20.28479,-1.81841 27.21921,4.32105 6.0772,5.95461 7.54381,15.42094 7.80914,21.93666 -0.53351,11.07513 -1.76439,22.18306 -5.4684,33.85404 -2.47627,7.01634 -5.71004,13.41449 -10.09491,19.08278 -5.6068,6.65432 -11.88076,12.71857 -19.56608,16.81043 -5.91145,2.42573 -14.3856,2.72041 -20.77629,0.99314 z m 18.54495,-4.46926 c 7.54069,-4.43442 13.3678,-8.20615 18.08406,-15.28666 -2.84472,-5.17206 -5.09579,-7.97601 -10.13954,-9.10732 -6.63193,-1.48754 -15.04844,4.42238 -18.89026,10.79488 -2.02651,3.31265 -3.34393,5.14083 -5.41282,14.06292 6.07736,2.06889 11.34611,1.21328 16.35856,-0.46382 z m -20.65852,-49.26397 c 8.93831,-7.98357 23.79814,-9.45197 32.36326,-7.04711 8.56512,2.40486 13.32109,10.05729 16.78777,20.37386 2.59502,-9.37719 4.79985,-17.73485 5.05536,-27.82837 -0.008,-12.22602 -4.43248,-22.52796 -16.11038,-25.22311 -11.682,-1.08111 -16.43804,1.58903 -23.93791,7.44633 -5.70949,4.73372 -11.76507,10.19765 -15.5462,15.67025 -3.89491,5.14231 -6.90359,11.05224 -9.19514,16.54626 -1.9522,5.28799 -4.67145,11.2593 -4.8914,16.22128 3.80209,-4.58614 6.53633,-8.17582 15.47464,-16.15939 z m 194.59135,34.22865 c -1.77666,-1.17116 -2.36747,-2.46079 -2.38045,-5.19559 -0.0181,-3.79993 2.64554,-7.72987 7.30832,-10.7832 2.345,-1.53556 4.03873,-1.61599 6.70912,-0.31862 l 1.99078,0.9672 1.01735,-1.18272 c 1.7744,-2.0629 4.07592,-1.15867 4.07592,1.60143 0,2.13316 -2.42303,6.90469 -4.68597,9.22781 -3.30876,3.39674 -8.87432,6.52633 -11.59437,6.51978 -0.64717,0 -1.74549,-0.3778 -2.4407,-0.83609 z M 95.241656,1000.1125 c 1.800684,-7.04138 1.954822,-7.94673 1.975541,-11.60447 0.01895,-3.34867 -1.023478,-8.68462 -2.281995,-11.6808 -0.932439,-2.21987 -3.002133,-3.08536 -6.581175,-2.7521 -2.415499,0.22503 -6.688394,1.73843 -8.022576,2.84164 -3.77084,2.85489 -8.436579,6.18967 -11.165237,8.65447 -1.179919,1.06679 -3.405031,3.46495 -4.547943,5.75077 0,0 -0.379689,-0.24592 4.644203,3.03561 4.500009,2.54831 7.487472,4.43619 12.170101,6.16438 3.606773,1.3956 8.005505,3.2448 12.051411,4.4563 1.051478,-2.1944 0.692416,-0.7003 1.75767,-4.8658 z M 53.232688,975.70479 c 1.436157,-1.81333 4.879961,-7.39829 6.341376,-11.08769 0.549421,-1.38707 1.303976,-3.45376 1.622223,-3.82884 1.086699,-2.8925 1.250337,-5.29483 0.950569,-7.86896 -0.145,-1.24505 -0.783379,-3.52935 -1.418611,-5.07618 -1.14019,-2.77648 -1.184999,-2.8212 -3.498956,-3.49387 -1.794162,-0.52159 -3.215873,-0.60908 -6.061015,-0.37313 -4.291195,0.35605 -7.558732,1.52592 -12.124335,4.34077 -1.703281,1.05018 -4.144518,3.42454 -4.144518,3.42454 1.284443,4.33408 2.828979,8.96984 4.889418,12.5804 3.266333,5.20362 6.681838,11.05094 10.37374,14.98825 0.884808,-1.42096 2.144038,-2.39388 3.070109,-3.60529 z m 318.234132,-18.1784 c 3.32591,-2.10101 9.67791,-5.02504 12.62398,-7.25089 -4.50072,-4.67582 -10.24951,-12.82566 -17.39366,-12.40939 -5.07829,0.49309 -7.96473,6.0554 -9.33806,9.94787 -2.37078,6.30455 -1.7461,12.70721 0.82215,18.26694 4.75423,-3.92986 7.90562,-5.58045 13.28559,-8.55453 z m 45.02487,-16.35506 c 7.18791,-1.38416 16.039,-2.7307 24.47678,-3.25713 -3.47176,-2.06607 -12.75732,-6.92811 -19.15405,-10.12108 -4.88933,-2.48214 -10.04644,-4.05014 -14.96091,-6.85169 -4.20591,1.0972 -9.51744,4.28025 -12.31124,8.25995 -1.7242,2.13115 -2.5117,6.64391 -1.90042,9.86116 0.51431,2.70685 1.49821,4.65535 3.37314,6.65959 6.1978,-1.62843 14.31618,-3.43144 20.4767,-4.5508 z m -155.24628,-11.9256 c 21.70749,-0.90068 27.70699,-1.8473 40.51744,-6.39294 3.65344,-1.34782 6.92414,-2.83271 10.5604,-4.34011 2.5614,-1.05998 10.19504,-5.96893 14.13545,-9.08996 6.77171,-5.38669 11.55967,-11.87742 14.70731,-16.96804 0.97435,-0.9964 6.44293,-9.34436 8.87765,-13.56496 2.06807,-3.58509 8.18728,-15.43359 9.35935,-18.12248 1.56371,-3.71058 3.35421,-7.07442 4.37968,-11.05407 0.38337,-1.52872 1.93613,-6.5485 3.45053,-11.15502 2.77006,-8.42606 3.77287,-12.39034 5.44439,-21.52222 1.25905,-6.87852 1.48119,-7.65723 3.29284,-13.84343 0.85686,-2.92575 2.26908,-7.48955 3.01259,-8.71795 0,0 -2.31141,-3.13538 -4.26723,-5.30297 -3.57071,-3.95731 -7.76095,-9.10147 -10.78105,-13.23533 -1.74276,-2.35881 -3.83065,-4.80374 -5.40425,-6.86836 -3.92408,-5.1573 -3.80629,-5.53616 -5.00237,-7.28179 -1.16375,1.77796 -5.78548,9.53759 -7.41144,13.7436 -1.13147,2.92686 -3.91675,9.68195 -4.49541,10.90264 -1.60491,3.15602 -2.60228,6.43203 -3.86274,9.69832 -1.12436,2.52769 -3.54631,8.99561 -4.33968,11.58932 -0.8362,2.73373 -3.76079,9.22146 -4.66364,10.34558 -0.21156,0.26351 -1.17074,1.9363 -2.13148,3.7175 -0.96074,1.78111 -3.00756,5.27245 -4.54851,7.75863 -1.54096,2.48608 -3.69278,6.23093 -4.7818,8.32186 -1.95961,3.76241 -3.7813,6.62002 -6.18157,9.69651 -0.68147,0.87352 -2.17014,3.13988 -3.30822,5.0364 -1.1381,1.89652 -3.43889,5.19402 -5.11286,7.32761 -3.59951,4.58784 -20.24868,21.21112 -23.34184,23.30549 -1.18536,0.80264 -2.64011,1.829 -3.23278,2.28103 -1.56641,1.19435 -12.59172,7.6927 -14.75288,8.69536 -1.01311,0.47004 -2.90885,1.52078 -4.21273,2.33509 -1.30388,0.81422 -3.53451,1.90941 -4.95692,2.4338 -1.42243,0.52429 -3.55606,1.38735 -4.7414,1.9179 -1.18536,0.53054 -3.31899,1.37838 -4.74141,1.88418 -1.42242,0.50572 -2.97416,1.10117 -3.44829,1.32311 -5.15638,2.35243 -11.07195,3.50151 -16.286,4.49774 -2.90593,0.55772 -10.59504,0.43873 -14.25575,-0.14163 0,0 -4.11903,5.04722 -6.42887,7.81823 -1.85197,1.94756 -4.06727,4.23984 -6.40182,7.48582 9.48153,1.96669 14.84566,2.58706 22.46716,3.61517 2.13613,0.32036 11.30664,1.22451 21.1208,2.08224 5.18031,0.45286 5.92366,0.44558 21.76735,-0.21187 z M 108.16367,847.76072 c 4.33608,-1.97087 9.5686,-3.4754 13.36307,-5.32692 -3.44871,-5.43893 -4.8918,-6.15839 -9.00812,-12.95066 -1.34092,-2.22314 -3.07241,-5.01185 -3.84778,-6.19713 -4.11716,-7.66909 -8.22582,-15.90725 -9.721924,-21.21877 -0.815718,-2.09001 -2.50579,-8.10868 -3.032189,-10.10714 -1.001728,-3.98079 -2.17659,-6.53111 -3.405449,-10.21119 -1.439683,-2.90567 -2.184078,-6.42451 -3.189616,-9.14625 -1.605606,-4.06074 -2.915533,-8.74643 -4.055986,-12.03252 -0.786788,-2.26385 -2.126004,-6.60188 -3.326699,-10.77592 -0.306874,-1.06681 -0.807395,-3.10345 -1.112271,-4.52588 -0.243836,-1.75764 -1.209336,-3.30098 -1.694279,-4.91675 -1.141369,-3.52716 -2.908716,-7.21557 -4.044708,-10.2272 -0.989144,-2.02811 -2.098003,-4.1399 -2.810761,-5.92141 -0.852582,-2.66632 -2.610538,-5.01458 -3.818126,-7.38306 -1.264759,-2.49979 -8.853698,-12.53915 -9.044919,-11.96549 2.337246,5.82164 4.096137,8.61828 6.069942,14.05554 0.909966,2.14717 1.563033,4.13042 2.505325,7.60828 2.050815,6.76855 2.934571,12.70168 4.032382,19.39664 1.301315,7.92525 1.310335,8.3075 0.854558,36.20709 -0.133627,8.17952 -0.05611,16.02814 0.178681,18.10353 0.514406,4.54607 1.93496,12.36433 2.819472,15.51728 0.588196,3.24017 1.999731,6.60098 2.82446,9.42975 0.0037,0.80068 3.137308,6.44569 5.712048,10.28971 1.891768,3.14304 3.684842,6.51176 5.9286,9.14748 1.195756,1.41713 6.931872,7.28298 7.167228,7.32929 3.582831,-1.63838 7.263531,-2.75267 10.657061,-4.1783 z m 282.61622,-90.85439 c 0.98238,-3.24259 2.24898,-7.25373 3.3553,-10.00498 -2.25768,-4.14799 -4.77289,-5.31899 -8.86171,-7.2775 -4.19788,-1.69834 -8.17856,-0.21118 -12.00664,1.74177 -2.14889,1.09626 -6.20193,4.50665 -6.20193,5.00083 0,0.19138 0.44823,0.70147 0.99612,1.13354 0.54784,0.43207 2.17445,2.14337 3.61467,3.80286 1.44023,1.65949 4.91981,5.36171 7.73238,8.22711 2.89414,2.81074 5.64179,5.92503 8.36982,8.52943 0.88458,-4.03416 1.92383,-7.48874 3.00199,-11.15306 z m 36.63014,-12.91127 c 5.80823,-0.12393 12.11213,-0.40682 14.0087,-0.62859 1.89655,-0.22181 7.61857,-0.5184 12.71558,-0.65913 5.097,-0.14074 10.81901,-0.34906 12.71558,-0.46289 5.65036,-0.42279 10.70645,-0.33872 16.37939,-0.87354 4.14919,-0.51739 20.8272,-0.66216 26.61154,-0.23104 3.61803,0.2697 11.23346,0.576 16.92314,0.68073 5.68968,0.10475 11.02377,0.27578 11.85351,0.38005 4.40209,0.55332 18.44126,0.77711 20.0432,0.31948 0.94828,-0.2709 3.46984,-0.61475 5.60348,-0.76413 3.17105,-0.22204 4.45567,-0.54242 7.03603,-1.75485 3.49808,-1.64362 8.69681,-6.28515 8.69681,-7.76465 0,-1.53173 -1.90863,-3.72423 -4.52025,-5.19256 -2.47518,-1.39165 -2.7275,-1.44161 -7.17796,-1.42161 -2.99282,0.0133 -5.30749,0.25669 -6.59155,0.69264 -1.27081,0.43147 -3.09535,0.6266 -5.09898,0.54534 l -3.12002,-0.12654 0,-1.29312 c 0,-1.12587 0.30914,-1.46036 2.3901,-2.58622 1.31458,-0.71121 2.78657,-1.68104 3.2711,-2.15518 0.48452,-0.47414 1.98789,-1.73493 3.34074,-2.80175 4.01041,-3.16237 7.57909,-6.33092 8.58799,-7.62498 0.51939,-0.66622 1.46266,-1.65221 2.09625,-2.19114 1.40221,-1.19281 2.94325,-4.25636 2.94325,-5.8511 0,-0.64401 -0.28397,-1.85053 -0.63104,-2.68118 -2.03467,-4.86967 -13.1952,-3.64657 -22.64494,2.48169 -0.59268,0.38435 -1.75656,1.05665 -2.58647,1.49397 -2.08489,1.09864 -4.49917,2.97765 -7.2229,5.6215 -2.22577,2.16053 -3.21988,2.48182 -3.7119,1.19962 -0.41177,-1.07311 0.26249,-3.68028 1.06254,-4.10848 1.19069,-0.63723 4.55007,-5.56239 6.04922,-8.86861 1.16681,-2.57342 1.34017,-3.45041 1.39263,-7.04586 0.0534,-3.64786 -0.061,-4.32329 -1.02329,-6.04628 -2.02048,-3.61794 -4.97183,-4.94601 -10.7226,-4.82503 -6.32782,0.13311 -12.83699,14.16926 -12.58294,27.1335 0.0638,3.25512 -0.0207,3.64891 -0.99237,4.62051 -0.97496,0.97496 -1.28782,1.04099 -3.8139,0.80513 -2.59066,-0.24194 -2.92701,-0.16259 -5.744,1.35534 -4.25377,2.29214 -9.24219,7.14001 -9.24219,8.98174 0,0.31819 -0.63191,1.30949 -1.40424,2.20294 -1.25682,1.45393 -1.7432,1.68273 -4.63364,2.17941 -3.42463,0.58848 -10.24659,0.99267 -23.2726,1.37888 -12.84762,0.38091 -18.33379,0.30031 -23.92253,-0.35159 -1.89656,-0.22121 -5.09701,-0.59854 -7.11212,-0.83854 -3.3666,-0.44536 -6.7673,-0.6026 -10.12935,-1.06445 -2.59338,-0.44018 -10.41945,-0.90113 -13.01725,-0.88431 -1.90466,-0.42051 -8.66124,-0.81268 -8.66124,-0.81268 0,0 -0.97873,0.17818 -4.80454,7.31756 -5.45183,10.17377 -6.92231,13.72585 -6.92231,13.72585 5.36649,-0.17493 21.91815,-0.85882 27.58634,-1.20585 z m -211.08346,-1.34903 c 2.13097,-0.36629 3.32772,-0.79535 5.52087,-1.51985 -2.19642,-2.71238 -3.7405,-6.44211 -5.07282,-8.9014 -2.61831,-4.85714 -5.53657,-8.20353 -7.76076,-8.89936 -1.68814,-0.5281 -3.78374,0.84979 -9.44011,6.20694 -6.80832,6.44821 -9.7622,9.9582 -9.7622,9.9582 0,0 1.2306,0.80405 2.28147,1.09771 3.32411,0.93085 6.30536,1.81472 9.66933,2.73635 1.84588,0.48819 10.60657,0.08 14.56422,-0.67859 z m 25.96036,-9.66469 c 2.51439,-0.83548 6.65172,-3.31541 8.98688,-4.45159 1.51873,-1.18863 4.96997,-2.54491 7.45483,-4.85303 1.98509,-1.85839 4.29879,-3.35007 5.93608,-5.30533 -2.49843,-1.10884 -5.12422,-2.46368 -7.29864,-3.90119 -4.04677,-2.69363 -5.73493,-3.46928 -7.55071,-3.46928 -2.35358,0 -3.63583,1.02799 -4.94187,3.96188 -0.66575,1.49556 -2.32323,5.04679 -3.68326,7.89163 -3.80811,7.9656 -4.96265,12.86639 -4.96265,12.86639 1.7454,-0.56515 3.53417,-1.85881 6.05934,-2.73948 z m 215.24964,-20.51882 c 7.86071,-3.72966 9.81957,-4.8176 12.33238,-6.84956 1.46587,-1.18534 3.41713,-2.73708 4.33606,-3.44828 2.72628,-2.2274 5.30115,-4.78383 7.88292,-6.93142 4.22732,-3.53037 7.01474,-9.02439 10.13142,-12.85188 3.56416,-4.35635 6.11468,-9.36663 6.78012,-13.31895 0.39048,-2.31927 -0.62759,-7.14933 -2.12592,-10.08634 -2.09242,-4.10148 -7.57709,-6.61852 -14.59419,-6.69762 -2.96881,-0.0336 -3.19118,0.0353 -5.06469,1.57075 -2.16172,1.77134 -2.06945,2.41492 -1.36198,5.48244 0.37341,0.90819 0.46556,2.89797 -1.03432,3.56787 -1.09792,-0.0613 -1.92334,-1.05434 -2.10424,-2.94256 -1.45128,-6.48512 -3.94871,-10.02037 -8.66598,-12.26697 -2.22329,-1.05884 -2.76346,-1.12905 -8.68802,-1.12905 l -6.31736,0 c -3.14218,0.60918 -5.03783,2.65036 -5.03783,2.65036 l 0.15574,3.39665 c 0.29254,4.83486 2.9738,11.40617 3.91178,12.47889 0.92039,1.05259 3.34791,3.63321 4.1339,5.86091 0.81948,2.32271 0.80734,5.47644 -0.0319,8.29098 -0.62634,2.10031 -5.46248,12.22032 -7.66008,16.02935 -0.97271,1.686 -1.26037,3.60046 -2.02075,7.59261 -0.877,4.6044 0.76982,7.51448 3.31417,8.68088 1.13042,0.99914 5.14955,2.40553 6.98753,2.44509 0.84306,0.0181 2.85156,-0.6275 4.7414,-1.52415 z m 20.95131,-0.564 c 1.89656,-1.0107 4.12717,-2.24673 4.95692,-2.74674 2.33557,-1.40733 8.65373,-7.48056 11.69577,-11.2423 1.50915,-1.86622 3.8855,-4.67873 5.28071,-6.25003 3.21445,-3.83667 5.92725,-7.727 8.87803,-11.4545 7.16977,-9.0259 9.65728,-12.45993 11.52181,-15.90598 2.47085,-4.09695 4.97582,-8.62679 7.32061,-12.46252 2.06988,-3.32321 4.37592,-8.75452 4.37592,-8.75452 0,0 -5.16184,-0.79239 -7.54565,-1.22974 -2.22401,-0.42191 -6.09079,-1.43971 -6.09079,-1.43971 0,0 -5.66783,12.43806 -7.53013,15.63128 -0.82953,1.42242 -2.08182,3.65302 -2.78282,4.95691 -2.86906,5.33654 -3.7335,6.74197 -4.91812,7.9959 -2.27031,4.11435 -3.71001,8.62566 -5.1214,11.18524 -1.64497,2.97996 -2.22364,3.8183 -8.06621,11.68613 -1.96555,3.91144 -5.34539,5.46314 -8.22426,8.2531 -4.13908,3.79621 -8.82198,7.38804 -11.68509,9.83066 -0.85146,0.72685 -4.23412,3.11881 -4.23412,3.11881 2.10296,1.09719 -0.099,1.06742 4.57296,0.85457 3.88472,-0.17699 4.3661,-0.30543 7.59586,-2.02656 z M 283.52623,701.24536 c 1.02147,-1.33539 2.82706,-3.61679 4.01241,-5.06981 3.58228,-4.17972 6.26495,-8.88072 8.60194,-13.03963 1.29358,-2.29614 2.26653,-4.31305 2.16208,-4.48197 -2.4899,-0.73303 -5.09596,-0.77886 -7.74676,-1.38165 -1.68673,-0.39009 -3.07264,-0.47124 -3.98486,-0.2334 -2.4552,0.64013 -2.41592,0.49332 -4.41514,16.50504 -0.19406,3.1407 -1.38453,6.99003 -0.89268,10.12936 0.22314,0 1.24147,-1.09259 2.26294,-2.42794 z m 224.05811,-44.57638 c 1.10484,-1.7898 3.53217,-6.31427 5.39412,-10.05441 3.73864,-7.50999 2.58511,-7.30916 2.58511,-7.30916 0,0 -9.72763,-3.50034 -12.84728,-4.59362 -2.79513,-0.97901 -7.15938,-2.76311 -9.69832,-3.96471 -3.86411,-1.45516 -7.88433,-3.85919 -11.51283,-5.08219 -3.04732,-1.2358 -6.31168,-3.13265 -8.27704,-4.37761 -3.67859,-2.3413 -12.87836,-7.56752 -15.28817,-9.49276 -2.20061,-1.75811 -9.73122,-7.67659 -9.73122,-7.67659 0,0 -2.19329,0.59466 -3.38192,0.96039 -1.11441,0.31928 -2.99687,0.78072 -2.99687,0.78072 0,0 0.10936,10.32461 0.45087,13.76212 0.34152,3.43752 0.62885,9.93539 0.63851,14.43973 0.0185,8.61116 0.62788,11.69676 0.62788,11.69676 0,0 1.43626,-0.75396 2.20488,-1.34016 0.76858,-0.58625 2.33863,-1.27802 3.48899,-1.53729 3.11381,-0.70177 10.65019,-0.41057 13.81533,0.53383 3.19911,0.95457 7.1624,3.93266 9.20728,6.91849 0.77121,1.12608 1.53574,2.04743 1.69898,2.04743 1.27154,-0.91898 2.44715,-2.10255 3.77618,-2.89076 1.70483,-0.99909 2.09587,-1.05582 5.38847,-0.78159 10.86693,0.90505 15.88929,4.70389 18.38918,13.90946 0.27362,1.00755 0.87427,1.83192 0.87427,1.83192 2.03822,-2.28768 3.57373,-5.15621 5.1936,-7.78 z m -193.49401,-9.67699 c 0.59122,-2.61483 1.61219,-5.27695 1.85966,-7.8044 0.12926,-1.39729 0.52655,-4.28618 0.88285,-6.41982 0.37281,-2.56801 0.78141,-5.19427 0.58656,-7.75899 0,0 -3.01463,2.22828 -4.59446,3.73497 -1.5798,1.50664 -3.98124,3.6683 -5.33651,4.80364 -3.66924,3.07381 -4.41565,4.28308 -3.8572,6.24861 0.24883,0.87586 0.80607,2.86799 1.23828,4.42691 1.16513,4.20266 4.95708,13.75533 4.95708,13.75533 2.28134,-4.51805 3.63325,-7.83921 4.26374,-10.98625 z m 5.10062,-48.00505 c 0,-1.28006 0.47499,-16.58494 0.53211,-17.41468 0.059,-3.30807 0.5256,-15.4903 0.5256,-15.4903 0,0 -5.92703,7.65504 -8.69232,11.34204 -4.40626,5.83499 -4.53768,6.29077 -2.47324,8.5763 1.55653,1.88762 2.91309,4.07677 4.31287,5.86714 1.69721,2.48854 4.73285,5.80521 5.79498,7.1195 z m 1.39464,-56.0903 c -0.19121,-6.66332 -0.0714,-20.76127 0.18521,-21.78357 0.51449,-2.04987 -0.17814,-1.40733 -6.75477,6.26624 -7.18706,8.38586 -9.20884,11.26045 -8.86987,12.61115 0.13522,0.53866 2.0251,2.52824 4.19976,4.42126 2.17467,1.89299 4.75248,4.21365 5.72847,5.15697 2.3664,2.28722 5.34085,4.37817 5.34085,4.37817 0.20726,-3.67836 0.26976,-7.37436 0.17035,-11.05022 z m -66.35916,-34.24893 c 6.82345,-2.13725 13.7296,-6.10934 19.93113,-7.99267 0.51597,0 9.41696,-4.00028 11.87245,-5.33571 2.63224,-1.17485 5.37873,-1.97488 7.83844,-3.43696 5.16947,-3.50771 8.58214,-3.22897 12.85132,-6.84645 0,0 -4.98987,-6.29215 -6.13317,-10.13989 -0.11014,-7.65748 9.09846,-12.27111 13.46079,-14.78917 4.26295,-2.98304 8.07278,-6.74198 11.75577,-8.77412 1.15574,-0.48289 2.4853,-2.29171 2.80203,-3.79771 0.52814,-2.51121 0.2781,-6.79378 -0.53682,-9.19406 -0.91833,-2.70475 -1.3244,-14.61683 -0.68219,-20.0097 0.96767,-8.12564 1.38391,-10.90195 1.73759,-11.58941 0.19788,-0.38466 0.57077,-1.72704 0.82862,-2.98308 0.64005,-3.1179 2.41514,-6.73093 3.59519,-7.3178 3.37756,-1.67975 6.70193,-2.1675 9.38211,-1.3766 0.8282,0.2444 2.76657,0.53522 4.30753,0.64626 1.54095,0.11103 3.68519,0.30069 4.76497,0.42138 2.27631,0.25453 2.74459,-0.12198 6.38926,-5.13683 1.53846,-2.11683 2.06316,-3.17661 1.81389,-3.66382 -0.41591,-0.81306 -0.98962,-4.98472 -1.10198,-8.01314 -0.0826,-2.2232 -0.55389,-4.09316 -1.03273,-4.09709 -0.89949,-0.007 -9.31392,2.86389 -11.47996,3.9173 -3.66773,1.74931 -6.98298,3.14474 -10.34489,5.14912 -2.79874,1.95349 -5.76477,2.84381 -8.62073,4.90468 -3.36048,1.39371 -5.67336,4.08108 -8.62073,5.9715 -0.94829,0.59987 -4.3805,3.48699 -7.62715,6.41576 -3.24666,2.92881 -6.80978,6.00396 -7.91801,6.83371 -1.10828,0.82973 -2.71921,2.1497 -3.57981,2.93329 -0.86065,0.78358 -3.05148,2.5563 -4.86856,3.93941 -6.6762,5.0817 -9.49953,7.47672 -14.52041,12.31744 -2.82263,2.72134 -5.27165,4.9479 -5.44228,4.9479 -0.35409,0 -1.3177,1.00785 -7.00602,7.32762 -2.24052,2.48924 -5.46221,6.003 -7.15932,7.80837 -1.6971,1.80535 -3.70759,4.13295 -4.46774,5.17243 -0.76014,1.03948 -2.96195,3.53868 -4.89292,5.55378 -10.73895,11.20686 -20.91315,25.22293 -22.18273,30.55908 l -0.55347,2.32622 1.8846,2.01474 c 1.96664,2.10252 5.76763,4.32429 7.3979,4.32429 2.34757,0 6.5821,3.88334 6.5821,6.03619 0,0.93652 1.19815,4.22417 1.84515,5.063 0.58362,0.75665 5.96439,0.6945 7.73078,-0.0893 z m 67.78936,-21.67355 c 0.0871,-3.97343 0.35359,-8.09724 0.59229,-9.16407 0.23872,-1.06681 0.74764,-5.58899 1.13096,-10.04926 0.41546,-2.83967 1.41216,-10.4563 1.41216,-10.4563 -3.8197,1.96194 -6.34995,4.84803 -10.40152,7.00114 -2.35967,1.20377 -7.92366,5.27952 -9.07474,6.6475 -1.23484,1.46755 -1.4407,3.41466 -0.57155,5.40658 0.49555,1.13573 1.91781,3.26122 5.58519,8.34693 0.76932,1.06683 2.3704,3.29743 3.55795,4.95693 1.1876,1.65949 2.37286,3.24195 2.63395,3.51657 1.38405,1.99261 2.49938,3.66772 4.484,5.25438 0,0 0.57914,-8.31613 0.65131,-11.4604 z m -89.30955,-11.88779 c 1.88077,-2.87044 10.21234,-12.9382 15.19619,-18.36293 1.43296,-1.55975 3.25564,-3.61174 4.05039,-4.56002 1.54271,-1.8407 3.70179,-4.27744 11.0757,-12.50006 8.44495,-9.41689 17.47744,-17.65315 30.87575,-28.15384 1.89654,-1.47585 3.6401,-3.15111 5.52314,-4.62542 1.16035,-0.86147 4.55369,-3.78562 8.54189,-7.36086 2.00005,-1.79289 4.88209,-4.2529 8.31013,-7.09318 2.18014,-1.78657 4.75329,-3.40037 6.81973,-4.9776 3.79774,-2.90748 20.12731,-11.36037 23.19908,-12.00887 0.78747,-0.16625 2.68381,-0.86995 4.21408,-1.56384 3.35067,-1.51927 13.45964,-4.45964 17.59599,-5.11813 1.64066,-0.26116 3.15429,-0.58069 3.36356,-0.71004 0.97065,-0.59988 15.0768,-2.41554 21.45522,-2.76157 3.91167,-0.21219 8.3729,-0.57655 9.91385,-0.8097 5.14469,-0.77837 8.7938,-0.93172 14.00869,-0.58862 6.4653,0.4253 11.4283,0 28.44842,-2.42948 3.31899,-0.47405 7.68323,-1.17331 9.69834,-1.55393 2.01508,-0.38062 5.21554,-0.94174 7.11209,-1.24692 1.89656,-0.30519 4.89938,-1.16482 6.67292,-1.91029 1.77351,-0.74546 3.46761,-1.35537 3.76463,-1.35537 0.29699,0 2.33735,-0.77541 4.53404,-1.72314 2.19673,-0.94772 4.20208,-1.72358 4.45636,-1.72413 6.72363,-2.90215 14.19295,-6.11249 20.59826,-10.67545 3.32144,-2.39364 6.78542,-4.73411 9.90476,-7.17027 4.33696,-3.43023 9.50854,-5.84383 13.4152,-9.72277 1.41698,-1.58843 3.45803,-2.65027 4.75761,-3.93882 2.05289,-2.05087 7.77482,-5.9939 8.6981,-5.9939 5.82607,-2.02221 11.72184,-4.75449 17.81065,-6.23338 2.72631,-0.64046 5.44184,-1.32324 6.03451,-1.51729 3.47179,-1.13673 17.90604,-2.91909 26.30815,-3.24855 9.6217,0.11619 18.68515,-2.8794 28.12816,-4.08361 8.78717,-1.32437 18.59306,-2.55293 26.65848,-2.77397 6.01977,0.0788 12.69503,-0.76767 18.04363,-1.33031 4.25063,-0.51593 8.50226,-0.92155 12.77764,-1.13396 -4.50352,-3.00798 -13.7807,-4.17109 -20.94127,-5.5726 -4.62275,-0.99027 -13.23439,-0.69288 -18.65063,-3.04418 -0.40514,-0.21119 -2.3448,-0.68644 -4.31037,-1.05614 -1.96561,-0.3697 -5.51348,-1.31461 -7.88417,-2.09979 -2.37071,-0.78521 -5.66814,-1.66008 -7.32763,-1.94419 -1.6595,-0.28408 -3.8901,-0.7845 -4.95692,-1.11203 -1.06681,-0.32753 -4.75218,-0.89362 -8.18969,-1.25798 -3.43753,-0.36437 -7.60781,-0.84933 -9.2673,-1.0777 -6.22951,-0.85726 -8.11887,-0.91052 -10.32126,-0.29094 -2.04759,0.57602 -3.65742,1.00034 -7.78227,2.05117 -0.94828,0.2416 -2.0151,0.58213 -2.3707,0.75679 -0.35561,0.17463 -3.84701,0.16934 -7.75867,-0.0118 -12.0873,-0.55961 -23.33714,-0.43505 -29.2526,0.32388 -2.99523,0.38426 -5.79106,0.8814 -6.213,1.10473 -1.99394,1.05538 -6.39003,2.1153 -9.74906,2.35055 -2.03941,0.14282 -5.26973,0.72365 -7.17853,1.29073 -1.9088,0.56708 -4.11609,1.03106 -4.90507,1.03106 -0.78901,0 -2.9126,0.37831 -4.71915,0.8407 -3.17321,0.81218 -4.96271,1.25692 -12.3364,3.06594 -9.51598,2.33461 -14.61381,3.45898 -18.53456,4.08797 -10.77222,1.72818 -20.05467,3.6202 -27.80187,5.66678 -1.30388,0.34444 -3.55907,0.89494 -5.01158,1.22334 -1.45246,0.32838 -3.39212,0.88613 -4.31036,1.23944 -0.91819,0.35331 -2.51962,0.86062 -3.55864,1.12739 -1.03905,0.26674 -2.91777,0.9555 -4.17498,1.53056 -3.39959,1.51569 -6.46252,2.39182 -9.44699,3.78908 -5.87567,3.06656 -11.25337,3.94943 -17.24766,6.34642 -1.6595,0.67061 -7.87724,2.92491 -10.1294,3.78028 -2.25217,0.85537 -3.26464,1.67161 -3.92625,1.92562 -3.88444,2.39652 -6.25533,3.50377 -9.95547,6.29069 -1.11552,0.84859 -2.73298,2.02781 -3.59436,2.62048 -4.94268,3.6716 -9.8216,7.47112 -15.00547,10.10661 -5.71388,3.20599 -11.67681,6.31036 -17.30849,9.29005 -2.63535,1.61065 -6.3186,3.172 -9.13133,4.58565 -0.82975,0.42026 -2.71959,1.30992 -4.19964,1.86523 -3.04711,1.04019 -5.04079,3.21098 -7.93829,4.5739 -1.99098,0.91265 -9.62801,7.16246 -11.24134,9.19946 -1.6441,2.82466 -2.79303,5.99234 -4.09661,8.74142 -1.39536,2.94303 -2.38919,4.14238 -8.77376,10.58832 -14.73451,14.87611 -27.58502,29.05157 -29.39855,32.42965 -0.3556,0.66242 -2.00432,2.90726 -3.6638,4.98856 -1.6595,2.08134 -4.08408,5.18317 -5.38797,6.89296 -1.30389,1.70984 -3.82545,4.99719 -5.60348,7.30525 -1.77802,2.30807 -3.62724,4.838 -4.10936,5.62202 -0.48212,0.78401 -1.20255,1.7857 -1.60096,2.22591 -0.70299,0.77681 -1.39054,2.02462 -6.12245,11.11152 -1.23452,2.37071 -2.94545,5.57116 -3.80204,7.1121 -1.25469,2.25709 -4.19287,9.37591 -4.19287,10.15876 0,0.5435 0.84728,0.0574 1.41788,-0.81345 z m 99.79495,-42.10818 c 0.61367,-1.46863 0.96743,-3.12625 1.75092,-4.35587 2.39847,-3.74237 4.2781,-7.58863 6.39857,-11.58838 1.0684,-2.01511 2.24991,-4.24571 2.62561,-4.95693 0.3757,-0.71121 1.30414,-2.10678 2.0632,-3.10131 0.75902,-0.99448 1.91718,-2.93414 2.57364,-4.31037 0.65647,-1.37616 1.5691,-2.92423 2.0281,-3.4401 1.06907,-1.20142 0.60031,-1.99535 -0.97401,-1.64956 -0.66283,0.14559 -2.36962,-0.0371 -3.79277,-0.40579 -1.42316,-0.36879 -3.29756,-0.67052 -4.16536,-0.67052 -2.00567,0 -5.09731,1.39587 -5.92943,2.67712 -1.05251,1.62063 -2.38983,5.94456 -2.90471,9.39191 -0.26562,1.77803 -0.65501,4.22653 -0.86541,5.4411 -0.99676,5.75469 -1.04926,19.12799 -0.0751,19.12799 0.61282,-0.75141 0.94796,-1.43692 1.26675,-2.15929 z m 33.4765,-51.0115 c 0.70592,-0.9825 1.80385,-2.56225 2.43989,-3.51054 0.63604,-0.94827 2.04502,-2.6666 3.13105,-3.81855 1.08605,-1.1519 1.86782,-2.26721 1.73725,-2.47846 -0.35259,-0.57052 -2.58864,-0.46672 -6.20739,0.28823 -3.5327,0.737 -4.45145,1.24777 -4.13347,2.29807 0.11547,0.3814 0.0647,2.17015 -0.11276,3.97498 -0.17755,1.80483 -0.16553,3.88844 0.0267,4.63015 0.29664,1.1448 0.46177,1.27717 1.09237,0.87561 0.40858,-0.26021 1.32044,-1.27694 2.02639,-2.25949 z m -26.97588,-36.79298 c 4.7294,-2.47985 14.02315,-8.19824 18.32898,-10.41085 4.11743,-2.18726 12.64033,-9.01639 12.64033,-9.01639 0,0 -3.37076,-4.91864 -4.24308,-6.98889 -1.77174,-2.84677 -3.4259,-6.05384 -4.74691,-8.72162 -2.40264,-4.02563 -5.03374,-13.26125 -5.03374,-13.26125 0,0 -3.29442,0.95373 -4.10044,1.36462 -4.46933,1.81104 -9.41706,2.23939 -13.87702,3.9759 -4.70167,2.18149 -8.18228,3.6215 -9.65259,4.77431 -0.94829,0.74351 -2.48337,1.56752 -3.07605,1.94287 -1.6928,1.07205 -4.77555,6.19606 -4.79486,8.68792 0.10601,2.59936 1.09742,3.89656 3.02161,5.443 2.27933,1.16725 3.80855,3.05915 5.07024,4.90256 0.80679,3.02322 0.0666,5.93565 -0.78235,11.58794 -0.64088,3.7586 0.0145,7.84 1.38601,10.76585 0,0 5.67245,-2.8709 9.85987,-5.04597 z m 275.90914,-3.34734 c 1.77803,-0.12203 4.20261,-0.41217 5.38796,-0.64476 4.93813,-0.2594 9.90267,-1.95058 13.73042,-3.45842 0.20724,0 12.09052,-5.43354 14.9064,-6.81585 1.21461,-0.59626 2.84541,-0.73022 9.05176,-0.74359 8.03044,-0.0173 8.93088,-0.16716 14.20443,-2.3645 4.56563,-1.90236 6.75051,-2.7794 9.74523,-3.91187 5.97641,-2.26002 15.42826,-7.28498 17.5971,-9.35534 1.99894,-2.42864 0.98165,-7.14593 -0.94453,-9.28408 -3.20637,-3.2277 -6.63834,-5.87476 -10.87368,-6.89426 -1.83094,-0.33225 -17.73888,-0.40673 -19.78759,-0.0926 -4.18802,0.25104 -11.34745,0.88088 -16.09434,1.69439 -5.2038,0.0462 -10.58099,0.3209 -15.58684,0.5175 -4.96718,0.13402 -9.74989,1.28499 -14.65525,1.91263 -6.05768,0.67413 -10.71206,1.90037 -16.59491,2.96649 -2.3135,0.41961 -10.98746,1.25102 -16.16388,1.54934 -5.90744,0.34045 -19.19074,2.07795 -21.58242,2.82304 -0.72803,0.22682 -1.7811,0.41239 -2.34011,0.41239 -0.55901,0 -1.61207,0.18146 -2.34009,0.40323 -2.66997,0.81332 -5.21951,1.49579 -5.8496,1.56585 -5.41514,1.7508 -10.35382,3.57359 -15.33125,5.81377 -2.88065,1.29654 -6.71279,3.8385 -6.44351,4.27417 4.24268,1.48707 8.69112,2.14583 12.9385,3.03796 8.05487,1.61544 15.26983,3.75541 23.06047,5.57175 10.91147,2.77669 17.65726,4.42176 22.90136,6.05659 4.14775,1.03248 16.10745,5.3836 16.10745,5.3836 0,0 3.1789,-0.29536 4.95692,-0.41739 z M 379.85074,319.80056 c 2.9292,-1.79707 5.08008,-3.66498 5.08008,-3.66498 0,0 -0.84431,-3.93668 -1.25517,-5.00397 -0.82984,-2.15568 -2.05822,-5.1205 -2.05822,-5.1205 -7.61293,2.4389 -11.69479,0.93385 -11.96631,-3.39547 0,-2.70794 1.33174,-5.46535 3.94597,-8.17032 1.38578,-1.43386 2.51958,-2.74101 2.51958,-2.90481 0,-0.1638 -0.41009,-1.23522 -0.91125,-2.38096 -0.5012,-1.14575 -1.00984,-3.29857 -1.1303,-4.78408 -0.19709,-2.43043 -0.0985,-2.88302 0.98435,-4.51932 2.01997,-3.05234 5.63697,-6.32776 8.7041,-7.88208 3.53387,-1.40475 6.38251,-2.94479 9.81009,-4.40817 5.27074,-2.33314 10.33297,-5.5037 15.90982,-7.22112 1.32509,-0.38522 2.40923,-0.9405 2.40923,-1.23397 0,-0.93029 -1.02646,-1.94231 -2.64768,-2.61042 -1.48463,-0.61181 -1.68416,-0.5892 -3.66381,0.41519 -4.36879,1.24039 -8.72004,3.32566 -12.66744,4.94517 -2.26006,1.16071 -11.97454,5.79049 -14.42641,7.68134 -1.42241,1.09696 -4.19825,3.20209 -6.16847,4.67808 -4.71753,3.53405 -5.86805,4.58484 -8.76177,8.00231 -1.79648,2.12165 -2.57058,3.45546 -2.96873,5.11507 -1.05866,4.41304 0.2297,12.08096 2.86149,17.03069 1.52022,4.42642 4.47088,7.59567 6.46144,11.77976 1.44111,2.33498 2.67922,4.75654 4.38145,6.91994 0,0 2.62876,-1.47031 5.55796,-3.26738 z m 15.8781,-7.11502 c 3.81536,-1.48287 7.98309,-2.61755 11.6032,-4.24088 3.6828,-1.63364 7.59658,-3.08304 11.14618,-4.62873 3.39938,-1.64465 6.76409,-2.32022 10.05966,-3.55655 5.96887,-2.34142 23.46159,-6.51272 34.64819,-8.26214 2.96338,-0.46343 5.87287,-1.02495 6.46555,-1.24782 0.59268,-0.22288 1.85346,-0.52179 2.80174,-0.66424 2.8589,-0.42948 5.98222,-1.10865 6.89659,-1.49967 0.47414,-0.20277 2.12285,-0.66155 3.66381,-1.01952 6.58896,-1.53059 10.56678,-2.86142 10.56678,-2.86142 2.37725,-3.20015 2.51892,-6.403 2.5737,-8.58423 0.0868,-3.46106 -0.60867,-4.8413 -3.50989,-6.96515 -1.38517,-1.01401 -2.68586,-2.12214 -2.89038,-2.46251 -0.20457,-0.34036 -0.73351,-0.98042 -1.17544,-1.42235 -2.03299,-2.03298 -2.44601,-6.32473 -1.05402,-10.95272 1.04044,-3.45919 1.00906,-5.22406 -0.13401,-7.54315 -2.28368,-4.63314 -2.51092,-4.86421 -5.298,-5.38706 -1.79651,-0.33704 -3.81902,0.52464 -8.87625,3.78173 -1.00284,0.64585 -1.92884,1.17429 -2.05781,1.17429 -0.12896,0 -1.19871,0.66327 -2.3772,1.47393 -1.17846,0.81066 -2.72748,1.60237 -3.44226,1.75934 -0.71475,0.157 -2.70381,1.05778 -4.42021,2.00174 -3.8539,2.11958 -12.72041,6.05318 -15.62072,6.93009 -4.20286,1.27073 -6.92873,1.96944 -9.4828,2.4307 -3.91826,0.70762 -11.3723,1.43443 -11.8273,1.15324 -0.62991,-0.38931 -10.22475,1.41728 -13.89491,2.61621 -1.81956,0.59441 -4.99717,1.94248 -7.06127,2.99574 -3.17244,1.55795 -6.05465,2.85761 -8.83561,4.55696 -5.65566,2.13388 -8.99285,4.00148 -13.5217,7.40265 -1.21303,0.84403 -2.4026,3.25241 -2.4026,4.86417 0,1.32523 1.31483,4.05683 1.95268,4.05683 5.11584,-2.80211 11.41063,-4.84188 17.28,-5.47133 3.56575,-0.33297 5.44792,0.0855 7.02968,1.56315 2.49632,2.33191 1.48123,6.17202 -2.54177,9.61558 -1.92911,1.6512 -8.0209,5.93058 -8.44237,5.93058 -0.14263,0 -1.6504,0.65379 -3.35062,1.45287 -1.70026,0.79906 -4.69547,2.81812 -4.69547,2.81812 0,0 0.37607,2.09233 1.13442,4.13422 0.55723,1.93709 2.38856,6.09333 2.38856,6.09333 0,0 0.0729,0.41217 6.70187,-2.036 z M 335.4778,299.38047 c 3.99964,-2.01212 7.98171,-2.16328 11.97493,-3.88104 2.81803,-1.14268 5.28743,-1.90343 8.18971,-2.83683 l 0.21551,-4.12117 c 0.18888,-3.61152 0.3675,-4.35039 1.44445,-5.97472 1.15892,-1.74797 8.37223,-9.06797 8.93582,-9.06797 1.71875,-1.36976 3.58301,-2.06611 4.94864,-3.48705 2.2554,-2.37278 7.60418,-5.81194 13.25167,-8.52062 4.94084,-2.4092 10.73898,-4.56036 14.84839,-6.82611 2.92359,-1.63223 6.53774,-2.69577 9.2006,-2.70745 1.97752,-0.008 2.7176,0.21012 4.09485,1.21064 2.1085,1.53179 2.73489,2.29057 3.13938,3.80295 0.41215,1.54116 1.45229,1.7778 5.8445,1.32967 12.9105,-1.31724 15.47814,-1.65387 18.55936,-2.43323 4.29744,-1.08697 9.70385,-2.96674 10.56039,-3.67173 0.35562,-0.29269 1.81037,-1.07218 3.23278,-1.7322 6.21719,-2.88483 13.88656,-6.46991 15.98952,-8.29857 -4.17122,-2.41361 -7.62527,-4.1957 -10.90526,-7.4596 -1.06311,-1.06681 -3.15567,-3.78297 -4.6502,-6.03589 -2.62209,-3.24823 -4.45931,-6.66235 -6.65343,-9.61395 -1.1685,-1.56316 -2.65424,-3.77305 -3.30171,-4.91085 -1.56983,-2.75884 -3.64699,-4.92953 -7.28935,-7.61762 -4.112,-3.03472 -4.69622,-3.37499 -8.40521,-4.89569 -4.36654,-1.79028 -8.14318,-2.36766 -19.02517,-2.90859 -2.75911,-0.13714 -6.3475,-0.53135 -7.97419,-0.87599 -3.82573,-0.40281 -7.69774,-1.46671 -11.14738,-2.17871 -1.89656,-0.38906 -4.80606,-1.14577 -6.46555,-1.68157 -1.65949,-0.5358 -4.18105,-1.33193 -5.60348,-1.7692 -1.42241,-0.43727 -2.87716,-1.02266 -3.23276,-1.30089 -0.35561,-0.27823 -1.13148,-0.64726 -1.72416,-0.82007 -1.99794,-0.58258 -7.10085,-3.65279 -8.6,-5.17428 -0.81831,-0.83054 -1.70505,-1.51007 -1.97048,-1.51007 -0.26548,0 -1.78484,-1.03766 -3.37636,-2.30592 -1.59155,-1.26825 -3.42035,-2.57569 -4.06398,-2.90542 -2.11875,-1.08534 -5.88171,-3.50776 -7.63586,-4.91562 -2.96971,-2.38344 -4.4679,-2.95652 -7.66266,-2.93108 -2.86149,0.0227 -3.00705,0.0805 -7.11211,2.81739 -2.30497,1.53675 -5.35463,3.34034 -6.77706,4.00795 -1.42242,0.66762 -3.67454,1.9538 -5.00472,2.85816 -1.33022,0.90437 -3.17292,1.9556 -4.09485,2.33606 -0.92199,0.38047 -3.32506,1.52012 -5.34016,2.53254 -4.69381,2.35828 -9.49798,4.27325 -12.47893,4.97415 -2.97546,0.69961 -6.55383,2.27233 -7.34828,3.22956 -0.48414,0.58331 -0.62142,2.72654 -0.65866,10.28257 -0.0315,6.35517 -0.23622,10.26602 -0.61298,11.70086 -0.75385,2.87098 -3.3836,9.11292 -4.62747,10.98373 -0.54888,0.82551 -0.99795,1.66913 -0.99795,1.8747 0,0.35899 -2.26689,4.21919 -4.12001,7.01578 -0.48823,0.7368 -1.42533,2.40229 -2.08246,3.70106 -0.65712,1.29879 -3.78358,5.69573 -6.94767,9.77097 -5.75894,7.41734 -7.281,10.11325 -7.281,12.89634 0,1.94355 2.79531,4.68559 7.06901,6.93432 4.51449,2.37542 5.78165,11.07087 2.61077,17.91552 -1.82263,3.93432 -1.93372,4.49771 -1.07419,5.44747 0.91431,1.01031 3.56473,1.113 5.31858,0.20606 1.84668,-0.95497 5.6199,-5.31804 6.70837,-7.75707 2.69425,-5.79327 2.63123,-9.82894 4.59462,-16.05728 1.15116,-3.60847 1.46638,-4.14146 3.50355,-5.9235 2.36495,-2.16008 5.49885,-3.52986 8.01611,-5.04837 4.41402,-2.41129 7.1093,-4.81631 8.25056,-9.28327 0.77323,-2.36564 1.76229,-3.95338 3.20989,-5.85137 5.38757,0.44104 10.57636,-0.16534 15.85747,-0.83379 -0.0955,-6.00696 -2.39391,-10.62718 0.96154,-11.33606 2.90679,-0.18287 2.71905,5.41898 3.27437,10.86152 2.02811,8.42402 0.3344,19.87592 -0.72674,27.6509 -0.9576,4.29545 -3.61746,14.73829 -5.49463,18.18059 -2.65031,4.71433 -4.71015,12.78767 -3.72997,14.61918 0.54504,1.01838 2.30281,3.02377 2.65923,3.03385 3.16433,-1.59434 6.30884,-3.42472 9.73246,-4.71408 z m 48.75421,1.06457 c 1.04825,-0.5486 7.45034,-4.06316 9.79884,-5.16395 3.0605,-1.43451 7.86117,-6.15967 7.26177,-7.7217 -0.48561,-1.26548 -5.91022,-0.56643 -8.51896,0.0868 -2.40737,0.6028 -8.96665,3.4717 -9.97267,3.98786 -1.35547,0.69545 -2.30504,1.58646 -3.88706,2.35685 -1.26628,1.36205 -6.61475,5.14004 -5.00683,8.91714 1.0509,0.97403 4.65144,0.12794 6.61048,-1.01334 1.11804,-0.50721 2.55891,-0.88878 3.71443,-1.44966 z"
       id="path3050"
       style="fill:#000000" />
  </g>
</svg>
