<?xml version="1.0" encoding="UTF-8" standalone="no"?>
<!-- Created with Inkscape (http://www.inkscape.org/) -->

<svg
   xmlns:dc="http://purl.org/dc/elements/1.1/"
   xmlns:cc="http://creativecommons.org/ns#"
   xmlns:rdf="http://www.w3.org/1999/02/22-rdf-syntax-ns#"
   xmlns:svg="http://www.w3.org/2000/svg"
   xmlns="http://www.w3.org/2000/svg"
   version="1.1"
   width="521.14752"
   height="787.35046"
   id="svg3039">
  <metadata
     id="metadata3045">
    <rdf:RDF>
      <cc:Work
         rdf:about="">
        <dc:format>image/svg+xml</dc:format>
        <dc:type
           rdf:resource="http://purl.org/dc/dcmitype/StillImage" />
        <dc:title></dc:title>
      </cc:Work>
    </rdf:RDF>
  </metadata>
  <defs
     id="defs3043" />
  <path
     d="M 43.868299,0.50671893 C 11.553424,1.1258099 -13.726881,36.860561 9.5557987,62.537969 30.86105,92.021472 43.368715,127.41849 50.894199,161.72547 c 5.300634,31.05723 0.409992,51.17875 -3.2759,80.15625 0.194195,28.20745 21.535485,44.3401 35.53125,66.6875 -22.698304,30.1702 -72.938459,110.80085 -35.125,146.6875 -17.100354,18.78631 -33.356796,70.03988 -33.6875,121.59375 -5.2263897,78.29871 44.641724,176.39694 56.28125,210 4.492833,-14.11762 -19.5,-62.84375 -19.5,-62.84375 0,0 16.94565,-8.53313 14.625,-24.125 -3.12193,-17.1004 -16.740997,-23.14471 -26.375,-15.4375 -11.580856,-22.13987 -11.71398,-42.45359 -16.78125,-66.46875 -3.343994,-49.29013 1.950345,-84.05518 8.34375,-103.75 9.688018,-28.97337 27.375,-54.0625 27.375,-54.0625 15.173554,9.1523 27.46875,4.0625 27.46875,4.0625 14.691851,27.21606 64.672611,75.87688 86.906251,83.09375 -18.17988,-19.73748 -31.48561,-24.77433 -50.03125,-50.15625 -13.56614,-12.39124 -25.937501,-35.78125 -25.937501,-35.78125 45.038961,-18.3046 100.611681,-54.43187 137.687501,-77.21875 21.43669,-11.14965 46.875,-31.1875 46.875,-31.1875 38.89898,56.76241 84.06918,67.45223 116.8125,43.84375 6.87807,-5.48576 12.08912,-11.39203 15.625,-17.6875 5.45175,-2.47177 10.42838,-5.20844 14.90625,-8.21875 25.8566,8.42193 46.14136,33.25381 54.15625,38.0625 14.23645,14.90264 21.07636,28.97071 25.4375,47.375 5.58172,23.55518 2.84799,41.38467 -23.4375,64.625 -25.82085,28.23016 -78.1802,40.93793 -124.84375,32.8125 -43.92658,-4.28865 -89.24402,-20.62072 -112.34375,-26.8125 12.22952,18.97834 50.69861,25.35636 73.90625,30.8125 29.83871,6.5239 69.1769,9.74779 103.3125,5.25 28.7636,-2.62376 61.41325,-25.3289 81.78125,-47.5 1.0471,41.80513 -17.69412,60.723 -54.15625,74.125 -41.86285,12.22179 -66.09829,11.83153 -99.03125,11.65625 -38.05915,-0.90538 -96.59395,-11.15452 -131.875,-24 13.9787,10.99171 20.59996,16.32434 37.1875,20.4375 -8.2474,23.89175 -9.23882,49.41268 -7,73.875 1.90492,20.81401 12.40098,45.89175 19.25,64.8125 5.36821,14.55878 12.90625,49.4375 12.90625,49.4375 0,0 7.28491,-14.47384 -3.3125,-49.15625 -20.2314,-45.52066 -21.63084,-65.65802 -20.5625,-100.40625 2.99061,-19.81234 8.9375,-36.875 8.9375,-36.875 35.64581,8.91145 59.28872,11.85628 87.46875,11.125 42.56262,-1.17298 86.38371,-3.01173 124.875,-24.4375 22.78824,-15.6224 39.45454,-46.90715 33,-80.1875 0,0 7.09653,-23.34392 6.3125,-42.65625 -0.72211,-15.17166 -4.64207,-22.31454 -10.40625,-33.71875 12.02312,-15.67349 10.62795,-28.43645 0.53125,-38.90625 -5.19013,-5.38192 -12.72172,-10.19045 -22.53125,-7.9375 -6.86017,1.57557 -10.76723,5.80071 -12.53125,8.21875 0,0 -13.13374,-16.6084 -37.21875,-27.6875 19.93149,-18.71947 27.25926,-38.95129 25.03125,-67.96875 -1.32206,-25.03244 -27.7662,-51.9071 -40.53125,-57.6875 0,0 27.18798,-24.20636 25.40625,-38.0625 -5.65283,-26.84442 -27.15354,-22.95131 -64.5625,-28.90625 -22.38183,-1.10634 -54.95523,-4.72326 -78.96875,-2.1875 -1.90188,-14.89627 -9.70534,-61.87591 -75.88245,-74.894002 C 185.33541,88.972036 167.32115,58.937016 136.97345,39.234619 111.58518,22.321705 78.443573,1.021641 45.399549,0.50671893 c -0.516313,-0.008046 -1.018315,-0.009827 -1.53125,0 z m 1.1875,8.28124997 C 61.683656,8.4668416 116.92457,33.777089 129.11546,45.981225 c 20.32848,16.900525 57.55129,51.008005 89.8252,58.474355 8.26445,7.45926 9.1095,15.41953 1.73398,27.1385 -18.57067,29.49939 -38.85951,48.11413 -67.52509,66.56889 -22.87435,15.60602 -77.21894,41.0969 -88.593751,6.46875 C 69.387234,172.10901 43.719871,83.119756 3.3370487,38.006719 9.0184505,17.372315 26.210895,9.1519131 45.055799,8.7879689 z M 232.32945,106.06922 c 49.32964,7.43246 62.71652,53.38261 62.28885,67.0625 2.43075,19.91435 -40.35778,56.05441 -78.3598,82.60895 -36.48333,25.49333 -75.73777,47.14927 -124.983951,48.7348 -12.805116,-19.33044 -31.305824,-36.69607 -33.53125,-51.5625 -1.917767,-12.81117 -3.877799,-21.38742 2.5183,-39.4299 12.313433,22.8332 33.143634,21.41021 59.894001,12.19001 23.92162,-9.66416 59.41382,-28.41708 84.15783,-55.0378 26.44144,-28.4469 40.575,-47.94642 28.01602,-64.56606 z m 114.1951,73.75 c 12.43132,0.55337 53.13946,3.84482 66.625,4.9375 37.93831,5.55132 30.75337,24.50651 -7.25,54.4375 -25.37339,19.56586 -57.77033,35.69058 -79.4375,58.96875 -21.70761,17.85057 -38.32764,37.99418 -61.1875,55.15625 -21.48605,16.13069 -23.09647,17.76743 -44.03125,28.5625 -34.30448,25.06989 -102.48948,63.9528 -137.468751,74.40625 -11.714684,3.50089 -43.521026,-6.24026 -40.21875,-36.5 -0.695739,-36.88427 29.21778,-83.60927 45.5,-104.53125 69.967461,-4.49366 106.321841,-32.90852 133.179051,-52.21115 28.40624,-20.41594 63.85801,-40.72268 84.2424,-81.2759 14.6909,-1.30314 26.7498,-1.42857 40.0473,-1.95045 z m 67.28125,65.71875 c 13.24675,5.53955 29.46651,23.03467 36.34375,37.625 8.61899,23.31205 3.3629,57.87668 -31.28125,80.71875 1.77335,-13.6569 -3.27988,-28.76147 -15.53125,-45.125 -7.83005,-13.2866 -42.25,-36.53125 -42.25,-36.53125 z m 0.71875,20.25 c -15.01456,8.61941 -7.22158,26.1829 3.15625,35.8125 10.37783,9.62961 27.06812,11.68641 22.3125,-11.3125 -4.32624,-10.45237 -14.92188,-22.22326 -25.46875,-24.5 z m 5.46875,16.6875 c 15.38536,12.25731 -8.58255,14.95104 0,0 z m -66.15625,4 c 0,0 39.0976,27.96397 42.90625,35.71875 10.73993,12.80808 26.87509,42.41816 -2.75,67.75 -39.57582,33.84051 -95.76927,-18.54178 -104.3125,-43.71875 23.94216,-24.67384 64.15625,-59.75 64.15625,-59.75 z m 12.625,20.9375 c -22.20132,10.8428 -13.29739,29.37447 -0.78125,37.78125 12.51615,8.40677 31.70235,7.72152 26.46875,-14.5625 -4.77123,-5.36517 -15.47344,-20.61254 -25.6875,-23.21875 z m 4.3125,15.4375 c 18.26199,8.09829 5.49625,20.90487 0,0 z m -3.90625,3.96875 c 16.07548,10.64115 -3.55019,12.26206 0,0 z m 127,63.9375 c 3.98385,-0.18654 7.90752,2.32342 10.90625,6.65625 8.04456,11.62351 0.69765,18.55237 -1.53125,20.28125 -5.17882,-7.78152 -11.40211,-14.93803 -18.71875,-20.71875 2.83513,-4.15555 6.1186,-6.06774 9.34375,-6.21875 z m -79.9375,44.03125 c -50.85047,7.1315 11.12779,86.33562 30.8125,46.0625 4.07569,-22.16519 -12.74456,-39.35882 -30.8125,-46.0625 z m -2.78125,10.0625 c 22.88841,-0.009 33.89696,39.87753 13.28125,37.25 -17.37701,-8.68113 -30.00799,-35.39084 -13.28125,-37.25 z m -282.9375,18.65625 c -0.26401,0.008 -0.53814,0.0322 -0.8125,0.0625 -10.40815,-0.48247 -13.02324,23.01877 1.4375,25.03125 21.98628,4.09765 16.48402,-25.02893 0.15625,-25.09375 -0.26335,-10e-4 -0.51724,-0.008 -0.78125,0 z m -3.3125,2.9375 c 9.30829,-0.54774 17.99235,12.55633 12.125,19.28125 -12.97932,1.99472 -14.58143,-8.72362 -13.03125,-19.1875 0.30109,-0.0468 0.60598,-0.0761 0.90625,-0.0937 z m 38.96875,7.90625 c -16.96096,1.41588 -1.33238,30.14168 14.5,25.8125 10.8749,-10.65776 -3.31315,-20.82747 -14.5,-25.8125 z m 0.3125,5.1875 c 6.89246,1.00379 11.18677,6.23832 11.90625,10.15625 3.82663,22.25151 -21.64913,-9.60698 -11.90625,-10.15625 z m -76.312501,37.46875 c -8.999555,8.16553 -11.346735,22.56146 -7.125,34.75 9.601067,27.71917 28.200921,21.64491 32.906251,8.625 4.23333,-11.71386 -12.07159,-39.03774 -25.781251,-43.375 z m 0.59375,8.25 c 14.892631,4.43534 18.025321,17.4694 19.281251,24.96875 2.0723,12.37405 -5.3522,26.79487 -18.843751,5.21875 -5.185017,-8.29204 -5.900385,-20.45954 -0.4375,-30.1875 z m -36.25,5.375 c -41.288356,2.32961 -8.500978,99.98428 9.28125,48.4375 5.149482,-14.92722 6.500847,-38.59016 -9.28125,-48.4375 z m -1.4375,6.5625 c 20.887307,11.21543 -1.455664,76.6639 -10.6875,32.5 -2.306796,-11.03541 -0.07288,-25.91942 10.6875,-32.5 z m 30.21875,65.09375 c -31.924015,1.13565 -37.137013,66.65072 -6.65625,54.96875 13.168316,-8.59636 17.432841,-24.91723 16.75,-39.96875 0.264064,-4.75972 -0.673835,-12.84294 -8.5625,-15 -0.520159,-0.015 -1.02452,-0.018 -1.53125,0 z m -0.46875,6.21875 c 10.446216,7.13451 4.325866,25.74742 -1.03125,36.34375 -10.747439,15.75495 -26.927957,8.16834 -17.375,-16.375 4.29908,-7.58752 9.050181,-17.81226 18.40625,-19.96875 z m 39.281251,1.09375 c -31.408709,5.37651 -10.90691,57.34641 1.4375,54.34375 18.20131,-10.34808 11.80185,-44.00449 -1.4375,-54.34375 z m -3.0625,8.84375 c 11.74683,1.35473 13.54144,30.19939 2.84375,40.0625 -11.24131,-5.50346 -16.25256,-35.24375 -2.84375,-40.0625 z m -67.187501,67.84375 c 6.212591,0.12893 9.201599,6.98807 11.65625,14.53125 1.034203,9.99009 -4.957069,16.84973 -12.0625,18.21875 -3.842363,-11.05189 -8.53125,-29.4375 -8.53125,-29.4375 3.576936,-2.36821 6.506486,-3.36295 8.9375,-3.3125 z m 55.250001,0.78125 c -28.824688,10.95714 -9.544238,81.74389 19.59375,56.25 4.18373,-17.17532 -2.40136,-35.47506 -10.25,-50.625 -3.95678,-4.00917 -4.32201,-4.77272 -9.34375,-5.625 z m 2.8125,5.875 c 9.89525,12.54512 12.55002,28.17646 13.3125,43.8125 -18.61446,24.11181 -33.224188,-32.36499 -13.3125,-43.8125 z"
     id="path2989"
     style="fill:#000000;fill-opacity:1;stroke:#000000;stroke-width:1px;stroke-linecap:butt;stroke-linejoin:round;stroke-opacity:1" />
</svg>
